<svg xmlns="http://www.w3.org/2000/svg" width="1040" height="520" viewBox="0 0 1040 520" role="img" aria-labelledby="title desc">
<title id="title">Cycle duration comparison</title>
<desc id="desc">Line chart comparing actual React loop cycle duration by cycle step. Fresh runs use react.loop.cycle events emitted from state cycle updates.</desc>
<rect width="100%" height="100%" fill="#ffffff"/>
<text x="72" y="28" font-family="Arial, sans-serif" font-size="14" font-weight="700">Cycle duration comparison</text>
<text x="72" y="50" font-family="Arial, sans-serif" font-size="12" fill="#555">Y-axis is linear React loop-cycle duration in ms. Max observed: 16370 ms.</text>
<line x1="72" y1="428" x2="952" y2="428" stroke="#333" stroke-width="1"/>
<line x1="72" y1="128" x2="72" y2="428" stroke="#333" stroke-width="1"/>
<line x1="72" y1="428" x2="952" y2="428" stroke="#e5e7eb" stroke-width="1"/>
<text x="64" y="428" text-anchor="end" dominant-baseline="middle" font-family="Arial, sans-serif" font-size="11" fill="#222">0</text>
<line x1="72" y1="368" x2="952" y2="368" stroke="#e5e7eb" stroke-width="1"/>
<text x="64" y="368" text-anchor="end" dominant-baseline="middle" font-family="Arial, sans-serif" font-size="11" fill="#222">3274</text>
<line x1="72" y1="308" x2="952" y2="308" stroke="#e5e7eb" stroke-width="1"/>
<text x="64" y="308" text-anchor="end" dominant-baseline="middle" font-family="Arial, sans-serif" font-size="11" fill="#222">6548</text>
<line x1="72" y1="248" x2="952" y2="248" stroke="#e5e7eb" stroke-width="1"/>
<text x="64" y="248" text-anchor="end" dominant-baseline="middle" font-family="Arial, sans-serif" font-size="11" fill="#222">9822</text>
<line x1="72" y1="188" x2="952" y2="188" stroke="#e5e7eb" stroke-width="1"/>
<text x="64" y="188" text-anchor="end" dominant-baseline="middle" font-family="Arial, sans-serif" font-size="11" fill="#222">13096</text>
<line x1="72" y1="128" x2="952" y2="128" stroke="#e5e7eb" stroke-width="1"/>
<text x="64" y="128" text-anchor="end" dominant-baseline="middle" font-family="Arial, sans-serif" font-size="11" fill="#222">16370</text>
<line x1="72" y1="428" x2="72" y2="433" stroke="#333" stroke-width="1"/>
<text x="72" y="446" text-anchor="middle" font-family="Arial, sans-serif" font-size="11" fill="#222">0</text>
<line x1="190.28" y1="428" x2="190.28" y2="433" stroke="#333" stroke-width="1"/>
<text x="190.28" y="446" text-anchor="middle" font-family="Arial, sans-serif" font-size="11" fill="#222">25</text>
<line x1="308.56" y1="428" x2="308.56" y2="433" stroke="#333" stroke-width="1"/>
<text x="308.56" y="446" text-anchor="middle" font-family="Arial, sans-serif" font-size="11" fill="#222">50</text>
<line x1="426.84" y1="428" x2="426.84" y2="433" stroke="#333" stroke-width="1"/>
<text x="426.84" y="446" text-anchor="middle" font-family="Arial, sans-serif" font-size="11" fill="#222">75</text>
<line x1="545.12" y1="428" x2="545.12" y2="433" stroke="#333" stroke-width="1"/>
<text x="545.12" y="446" text-anchor="middle" font-family="Arial, sans-serif" font-size="11" fill="#222">100</text>
<line x1="663.4" y1="428" x2="663.4" y2="433" stroke="#333" stroke-width="1"/>
<text x="663.4" y="446" text-anchor="middle" font-family="Arial, sans-serif" font-size="11" fill="#222">125</text>
<line x1="781.68" y1="428" x2="781.68" y2="433" stroke="#333" stroke-width="1"/>
<text x="781.68" y="446" text-anchor="middle" font-family="Arial, sans-serif" font-size="11" fill="#222">150</text>
<line x1="899.96" y1="428" x2="899.96" y2="433" stroke="#333" stroke-width="1"/>
<text x="899.96" y="446" text-anchor="middle" font-family="Arial, sans-serif" font-size="11" fill="#222">175</text>
<line x1="952" y1="428" x2="952" y2="433" stroke="#333" stroke-width="1"/>
<text x="952" y="446" text-anchor="middle" font-family="Arial, sans-serif" font-size="11" fill="#222">186</text>
<text x="512" y="496" text-anchor="middle" font-family="Arial, sans-serif" font-size="13">Cycle step number</text>
<text x="18" y="278" text-anchor="middle" transform="rotate(-90 18 278)" font-family="Arial, sans-serif" font-size="13">Duration ms</text>
<polyline points="81.46,385.98 86.19,367.63 90.92,400.14 95.66,380.96 100.39,398.42 105.12,385.7 109.85,397.74 114.58,370.51 119.31,399.56 124.04,306.02 128.77,397.18 133.51,382.39 138.24,400.18 142.97,360.83 147.7,399.19 152.43,375.02 157.16,382.46 161.89,283.7 166.62,397.91 171.35,379.93 176.09,386.07 180.82,374.73 185.55,398.48 190.28,380 195.01,397.82 199.74,377.58 204.47,396 209.2,376.81 213.94,396.94 218.67,380.19 223.4,382.39 228.13,379.23 232.86,396.59 237.59,326.71 242.32,394.76 247.05,387.99 251.78,394.52 256.52,392.81 261.25,329.09 265.98,287.13 270.71,392.39 275.44,389.51 280.17,291.23 284.9,389.53 289.63,388.71 294.37,387.77 299.1,389.77 303.83,389.55 308.56,385.01 313.29,317.27 318.02,389.77 322.75,384.9 327.48,385.08 332.22,374.03 336.95,323.78 341.68,385.9 346.41,387.21 351.14,385.7 355.87,382.48 360.6,372.91 365.33,372.56 370.06,392.45 374.8,391.73 379.53,320.86 384.26,360.63 388.99,381.14 393.72,383.65 398.45,364.88 403.18,384.53 407.91,386.8 412.65,378.13 417.38,388.12 422.11,284.43 426.84,128 431.57,389.95 436.3,395.31 441.03,390.65 445.76,388.23 450.49,380.13 455.23,382.62 459.96,370.55 464.69,390.36 469.42,392.14 474.15,389.61 478.88,390.25 483.61,388.8 488.34,387.9 493.08,390.82 497.81,387.06 502.54,388.43 507.27,384.66 512,388.32 516.73,384.04 521.46,372.43 526.19,373.55 530.92,389.88 535.66,385.56 540.39,374.49 545.12,370.36 549.85,392.34 554.58,389.28 559.31,388.54 564.04,388.73 568.77,386.88 573.51,387.55 578.24,383.41 582.97,370.46 587.7,390.01 592.43,393.89 597.16,391.18 601.89,385.78 606.62,365.16 611.35,358.71 616.09,391.07 620.82,372.05 625.55,372.71 630.28,350.85 635.01,391 639.74,379.6 644.47,174.38 649.2,390.52 653.94,364.63 658.67,131.61 663.4,393.57 668.13,391.49 672.86,392.98 677.59,391.92 682.32,382.13 687.05,390.5 691.78,383.52 696.52,242.54 701.25,387.81 705.98,392.7 710.71,387.77 715.44,365.42 720.17,390.12 724.9,390.16 729.63,393.02 734.37,392.01 739.1,390.28 743.83,391.66 748.56,391.27 753.29,393.31 758.02,393.75 762.75,387.5 767.48,390.19 772.22,390.96 776.95,388.84 781.68,387.13 786.41,382.92 791.14,391.15 795.87,367.65 800.6,391.75 805.33,325.15 810.06,370.55 814.8,394.32 819.53,360.14 824.26,389.84 828.99,377.46 833.72,393.69 838.45,390.38 843.18,375.13 847.91,390.54 852.65,374.27 857.38,385.34 862.11,393.13 866.84,394.13 871.57,366.11 876.3,395.03 881.03,370.77 885.76,393.14 890.49,376.3 895.23,388.21 899.96,373.5 904.69,394.83 909.42,375.15 914.15,392.48 918.88,375.81 923.61,390.08 928.34,372.86 933.08,375.97 937.81,365.47 942.54,390.67 947.27,355.3 952,373.2" fill="none" stroke="#d62728" stroke-width="2"/>
<line x1="682" y1="34" x2="712" y2="34" stroke="#d62728" stroke-width="2"/>
<text x="720" y="34" dominant-baseline="middle" font-family="Arial, sans-serif" font-size="12">002-ccrs</text>
<rect x="949" y="370.2" width="6" height="6" fill="#ffffff" stroke="#d62728" stroke-width="2"/>
<line x1="952" y1="373.2" x2="938" y2="328.2" stroke="#d62728" stroke-width="1" opacity="0.65"/>
<text x="938" y="328.2" text-anchor="end" dominant-baseline="middle" font-family="Arial, sans-serif" font-size="11" fill="#222">cells/12/5 at step 186</text>
</svg>
