<svg xmlns="http://www.w3.org/2000/svg" width="1040" height="520" viewBox="0 0 1040 520" role="img" aria-labelledby="title desc">
<title id="title">HTTP calls by move window</title>
<desc id="desc">Stacked bar chart of successful and failed HTTP calls per movement step for React experiment runs.</desc>
<rect width="100%" height="100%" fill="#ffffff"/>
<text x="72" y="28" font-family="Arial, sans-serif" font-size="14" font-weight="700">HTTP calls by move window</text>
<text x="72" y="50" font-family="Arial, sans-serif" font-size="12" fill="#555">Y-axis is linear HTTP calls per move window. Max observed: 35.</text>
<line x1="72" y1="428" x2="952" y2="428" stroke="#333" stroke-width="1"/>
<line x1="72" y1="128" x2="72" y2="428" stroke="#333" stroke-width="1"/>
<line x1="72" y1="428" x2="952" y2="428" stroke="#e5e7eb" stroke-width="1"/>
<text x="64" y="428" text-anchor="end" dominant-baseline="middle" font-family="Arial, sans-serif" font-size="11" fill="#222">0</text>
<line x1="72" y1="410.86" x2="952" y2="410.86" stroke="#e5e7eb" stroke-width="1"/>
<text x="64" y="410.86" text-anchor="end" dominant-baseline="middle" font-family="Arial, sans-serif" font-size="11" fill="#222">2</text>
<line x1="72" y1="393.71" x2="952" y2="393.71" stroke="#e5e7eb" stroke-width="1"/>
<text x="64" y="393.71" text-anchor="end" dominant-baseline="middle" font-family="Arial, sans-serif" font-size="11" fill="#222">4</text>
<line x1="72" y1="376.57" x2="952" y2="376.57" stroke="#e5e7eb" stroke-width="1"/>
<text x="64" y="376.57" text-anchor="end" dominant-baseline="middle" font-family="Arial, sans-serif" font-size="11" fill="#222">6</text>
<line x1="72" y1="359.43" x2="952" y2="359.43" stroke="#e5e7eb" stroke-width="1"/>
<text x="64" y="359.43" text-anchor="end" dominant-baseline="middle" font-family="Arial, sans-serif" font-size="11" fill="#222">8</text>
<line x1="72" y1="342.29" x2="952" y2="342.29" stroke="#e5e7eb" stroke-width="1"/>
<text x="64" y="342.29" text-anchor="end" dominant-baseline="middle" font-family="Arial, sans-serif" font-size="11" fill="#222">10</text>
<line x1="72" y1="325.14" x2="952" y2="325.14" stroke="#e5e7eb" stroke-width="1"/>
<text x="64" y="325.14" text-anchor="end" dominant-baseline="middle" font-family="Arial, sans-serif" font-size="11" fill="#222">12</text>
<line x1="72" y1="308" x2="952" y2="308" stroke="#e5e7eb" stroke-width="1"/>
<text x="64" y="308" text-anchor="end" dominant-baseline="middle" font-family="Arial, sans-serif" font-size="11" fill="#222">14</text>
<line x1="72" y1="290.86" x2="952" y2="290.86" stroke="#e5e7eb" stroke-width="1"/>
<text x="64" y="290.86" text-anchor="end" dominant-baseline="middle" font-family="Arial, sans-serif" font-size="11" fill="#222">16</text>
<line x1="72" y1="273.71" x2="952" y2="273.71" stroke="#e5e7eb" stroke-width="1"/>
<text x="64" y="273.71" text-anchor="end" dominant-baseline="middle" font-family="Arial, sans-serif" font-size="11" fill="#222">18</text>
<line x1="72" y1="256.57" x2="952" y2="256.57" stroke="#e5e7eb" stroke-width="1"/>
<text x="64" y="256.57" text-anchor="end" dominant-baseline="middle" font-family="Arial, sans-serif" font-size="11" fill="#222">20</text>
<line x1="72" y1="239.43" x2="952" y2="239.43" stroke="#e5e7eb" stroke-width="1"/>
<text x="64" y="239.43" text-anchor="end" dominant-baseline="middle" font-family="Arial, sans-serif" font-size="11" fill="#222">22</text>
<line x1="72" y1="222.29" x2="952" y2="222.29" stroke="#e5e7eb" stroke-width="1"/>
<text x="64" y="222.29" text-anchor="end" dominant-baseline="middle" font-family="Arial, sans-serif" font-size="11" fill="#222">24</text>
<line x1="72" y1="205.14" x2="952" y2="205.14" stroke="#e5e7eb" stroke-width="1"/>
<text x="64" y="205.14" text-anchor="end" dominant-baseline="middle" font-family="Arial, sans-serif" font-size="11" fill="#222">26</text>
<line x1="72" y1="188" x2="952" y2="188" stroke="#e5e7eb" stroke-width="1"/>
<text x="64" y="188" text-anchor="end" dominant-baseline="middle" font-family="Arial, sans-serif" font-size="11" fill="#222">28</text>
<line x1="72" y1="170.86" x2="952" y2="170.86" stroke="#e5e7eb" stroke-width="1"/>
<text x="64" y="170.86" text-anchor="end" dominant-baseline="middle" font-family="Arial, sans-serif" font-size="11" fill="#222">30</text>
<line x1="72" y1="153.71" x2="952" y2="153.71" stroke="#e5e7eb" stroke-width="1"/>
<text x="64" y="153.71" text-anchor="end" dominant-baseline="middle" font-family="Arial, sans-serif" font-size="11" fill="#222">32</text>
<line x1="72" y1="136.57" x2="952" y2="136.57" stroke="#e5e7eb" stroke-width="1"/>
<text x="64" y="136.57" text-anchor="end" dominant-baseline="middle" font-family="Arial, sans-serif" font-size="11" fill="#222">34</text>
<line x1="72" y1="128" x2="952" y2="128" stroke="#e5e7eb" stroke-width="1"/>
<text x="64" y="128" text-anchor="end" dominant-baseline="middle" font-family="Arial, sans-serif" font-size="11" fill="#222">35</text>
<line x1="72" y1="428" x2="72" y2="433" stroke="#333" stroke-width="1"/>
<text x="72" y="446" text-anchor="middle" font-family="Arial, sans-serif" font-size="11" fill="#222">0</text>
<line x1="410.46" y1="428" x2="410.46" y2="433" stroke="#333" stroke-width="1"/>
<text x="410.46" y="446" text-anchor="middle" font-family="Arial, sans-serif" font-size="11" fill="#222">25</text>
<line x1="748.92" y1="428" x2="748.92" y2="433" stroke="#333" stroke-width="1"/>
<text x="748.92" y="446" text-anchor="middle" font-family="Arial, sans-serif" font-size="11" fill="#222">50</text>
<line x1="952" y1="428" x2="952" y2="433" stroke="#333" stroke-width="1"/>
<text x="952" y="446" text-anchor="middle" font-family="Arial, sans-serif" font-size="11" fill="#222">65</text>
<rect x="81.04" y="410.86" width="3.5" height="17.14" fill="#93c5fd" opacity="0.55"/>
<rect x="94.58" y="410.86" width="3.5" height="17.14" fill="#93c5fd" opacity="0.55"/>
<rect x="108.12" y="410.86" width="3.5" height="17.14" fill="#93c5fd" opacity="0.55"/>
<rect x="121.65" y="410.86" width="3.5" height="17.14" fill="#93c5fd" opacity="0.55"/>
<rect x="135.19" y="410.86" width="3.5" height="17.14" fill="#93c5fd" opacity="0.55"/>
<rect x="148.73" y="410.86" width="3.5" height="17.14" fill="#93c5fd" opacity="0.55"/>
<rect x="162.27" y="410.86" width="3.5" height="17.14" fill="#93c5fd" opacity="0.55"/>
<rect x="175.81" y="410.86" width="3.5" height="17.14" fill="#93c5fd" opacity="0.55"/>
<rect x="189.35" y="410.86" width="3.5" height="17.14" fill="#93c5fd" opacity="0.55"/>
<rect x="202.88" y="410.86" width="3.5" height="17.14" fill="#93c5fd" opacity="0.55"/>
<rect x="216.42" y="410.86" width="3.5" height="17.14" fill="#93c5fd" opacity="0.55"/>
<rect x="229.96" y="410.86" width="3.5" height="17.14" fill="#93c5fd" opacity="0.55"/>
<rect x="243.5" y="410.86" width="3.5" height="17.14" fill="#93c5fd" opacity="0.55"/>
<rect x="257.04" y="410.86" width="3.5" height="17.14" fill="#93c5fd" opacity="0.55"/>
<rect x="270.58" y="410.86" width="3.5" height="17.14" fill="#93c5fd" opacity="0.55"/>
<rect x="284.12" y="410.86" width="3.5" height="17.14" fill="#93c5fd" opacity="0.55"/>
<rect x="297.65" y="410.86" width="3.5" height="17.14" fill="#93c5fd" opacity="0.55"/>
<rect x="311.19" y="410.86" width="3.5" height="17.14" fill="#93c5fd" opacity="0.55"/>
<rect x="324.73" y="410.86" width="3.5" height="17.14" fill="#93c5fd" opacity="0.55"/>
<rect x="338.27" y="205.14" width="3.5" height="222.86" fill="#93c5fd" opacity="0.55"/>
<rect x="338.27" y="170.86" width="3.5" height="34.29" fill="#1e3a8a" opacity="0.75"/>
<rect x="351.81" y="402.29" width="3.5" height="25.71" fill="#93c5fd" opacity="0.55"/>
<rect x="351.81" y="393.71" width="3.5" height="8.57" fill="#1e3a8a" opacity="0.75"/>
<rect x="365.35" y="385.14" width="3.5" height="42.86" fill="#93c5fd" opacity="0.55"/>
<rect x="365.35" y="325.14" width="3.5" height="60" fill="#1e3a8a" opacity="0.75"/>
<rect x="378.88" y="410.86" width="3.5" height="17.14" fill="#93c5fd" opacity="0.55"/>
<rect x="378.88" y="402.29" width="3.5" height="8.57" fill="#1e3a8a" opacity="0.75"/>
<rect x="392.42" y="410.86" width="3.5" height="17.14" fill="#93c5fd" opacity="0.55"/>
<rect x="392.42" y="402.29" width="3.5" height="8.57" fill="#1e3a8a" opacity="0.75"/>
<rect x="405.96" y="410.86" width="3.5" height="17.14" fill="#93c5fd" opacity="0.55"/>
<rect x="405.96" y="402.29" width="3.5" height="8.57" fill="#1e3a8a" opacity="0.75"/>
<rect x="419.5" y="410.86" width="3.5" height="17.14" fill="#93c5fd" opacity="0.55"/>
<rect x="419.5" y="402.29" width="3.5" height="8.57" fill="#1e3a8a" opacity="0.75"/>
<rect x="433.04" y="410.86" width="3.5" height="17.14" fill="#93c5fd" opacity="0.55"/>
<rect x="433.04" y="402.29" width="3.5" height="8.57" fill="#1e3a8a" opacity="0.75"/>
<rect x="446.58" y="410.86" width="3.5" height="17.14" fill="#93c5fd" opacity="0.55"/>
<rect x="446.58" y="402.29" width="3.5" height="8.57" fill="#1e3a8a" opacity="0.75"/>
<rect x="460.12" y="410.86" width="3.5" height="17.14" fill="#93c5fd" opacity="0.55"/>
<rect x="460.12" y="402.29" width="3.5" height="8.57" fill="#1e3a8a" opacity="0.75"/>
<rect x="473.65" y="410.86" width="3.5" height="17.14" fill="#93c5fd" opacity="0.55"/>
<rect x="473.65" y="402.29" width="3.5" height="8.57" fill="#1e3a8a" opacity="0.75"/>
<rect x="487.19" y="410.86" width="3.5" height="17.14" fill="#93c5fd" opacity="0.55"/>
<rect x="487.19" y="402.29" width="3.5" height="8.57" fill="#1e3a8a" opacity="0.75"/>
<rect x="500.73" y="402.29" width="3.5" height="25.71" fill="#93c5fd" opacity="0.55"/>
<rect x="500.73" y="368" width="3.5" height="34.29" fill="#1e3a8a" opacity="0.75"/>
<rect x="514.27" y="410.86" width="3.5" height="17.14" fill="#93c5fd" opacity="0.55"/>
<rect x="514.27" y="402.29" width="3.5" height="8.57" fill="#1e3a8a" opacity="0.75"/>
<rect x="527.81" y="410.86" width="3.5" height="17.14" fill="#93c5fd" opacity="0.55"/>
<rect x="527.81" y="402.29" width="3.5" height="8.57" fill="#1e3a8a" opacity="0.75"/>
<rect x="541.35" y="410.86" width="3.5" height="17.14" fill="#93c5fd" opacity="0.55"/>
<rect x="541.35" y="402.29" width="3.5" height="8.57" fill="#1e3a8a" opacity="0.75"/>
<rect x="554.88" y="410.86" width="3.5" height="17.14" fill="#93c5fd" opacity="0.55"/>
<rect x="554.88" y="402.29" width="3.5" height="8.57" fill="#1e3a8a" opacity="0.75"/>
<rect x="568.42" y="410.86" width="3.5" height="17.14" fill="#93c5fd" opacity="0.55"/>
<rect x="568.42" y="402.29" width="3.5" height="8.57" fill="#1e3a8a" opacity="0.75"/>
<rect x="581.96" y="410.86" width="3.5" height="17.14" fill="#93c5fd" opacity="0.55"/>
<rect x="595.5" y="410.86" width="3.5" height="17.14" fill="#93c5fd" opacity="0.55"/>
<rect x="595.5" y="402.29" width="3.5" height="8.57" fill="#1e3a8a" opacity="0.75"/>
<rect x="609.04" y="410.86" width="3.5" height="17.14" fill="#93c5fd" opacity="0.55"/>
<rect x="622.58" y="410.86" width="3.5" height="17.14" fill="#93c5fd" opacity="0.55"/>
<rect x="636.12" y="410.86" width="3.5" height="17.14" fill="#93c5fd" opacity="0.55"/>
<rect x="649.65" y="410.86" width="3.5" height="17.14" fill="#93c5fd" opacity="0.55"/>
<rect x="663.19" y="410.86" width="3.5" height="17.14" fill="#93c5fd" opacity="0.55"/>
<rect x="676.73" y="410.86" width="3.5" height="17.14" fill="#93c5fd" opacity="0.55"/>
<rect x="676.73" y="402.29" width="3.5" height="8.57" fill="#1e3a8a" opacity="0.75"/>
<rect x="690.27" y="410.86" width="3.5" height="17.14" fill="#93c5fd" opacity="0.55"/>
<rect x="703.81" y="410.86" width="3.5" height="17.14" fill="#93c5fd" opacity="0.55"/>
<rect x="717.35" y="410.86" width="3.5" height="17.14" fill="#93c5fd" opacity="0.55"/>
<rect x="730.88" y="410.86" width="3.5" height="17.14" fill="#93c5fd" opacity="0.55"/>
<rect x="744.42" y="410.86" width="3.5" height="17.14" fill="#93c5fd" opacity="0.55"/>
<rect x="757.96" y="410.86" width="3.5" height="17.14" fill="#93c5fd" opacity="0.55"/>
<rect x="771.5" y="410.86" width="3.5" height="17.14" fill="#93c5fd" opacity="0.55"/>
<rect x="785.04" y="410.86" width="3.5" height="17.14" fill="#93c5fd" opacity="0.55"/>
<rect x="798.58" y="410.86" width="3.5" height="17.14" fill="#93c5fd" opacity="0.55"/>
<rect x="812.12" y="196.57" width="3.5" height="231.43" fill="#93c5fd" opacity="0.55"/>
<rect x="812.12" y="170.86" width="3.5" height="25.71" fill="#1e3a8a" opacity="0.75"/>
<rect x="825.65" y="376.57" width="3.5" height="51.43" fill="#93c5fd" opacity="0.55"/>
<rect x="839.19" y="410.86" width="3.5" height="17.14" fill="#93c5fd" opacity="0.55"/>
<rect x="852.73" y="402.29" width="3.5" height="25.71" fill="#93c5fd" opacity="0.55"/>
<rect x="866.27" y="368" width="3.5" height="60" fill="#93c5fd" opacity="0.55"/>
<rect x="866.27" y="350.86" width="3.5" height="17.14" fill="#1e3a8a" opacity="0.75"/>
<rect x="879.81" y="410.86" width="3.5" height="17.14" fill="#93c5fd" opacity="0.55"/>
<rect x="893.35" y="179.43" width="3.5" height="248.57" fill="#93c5fd" opacity="0.55"/>
<rect x="893.35" y="162.29" width="3.5" height="17.14" fill="#1e3a8a" opacity="0.75"/>
<rect x="906.88" y="402.29" width="3.5" height="25.71" fill="#93c5fd" opacity="0.55"/>
<rect x="906.88" y="393.71" width="3.5" height="8.57" fill="#1e3a8a" opacity="0.75"/>
<rect x="920.42" y="205.14" width="3.5" height="222.86" fill="#93c5fd" opacity="0.55"/>
<rect x="920.42" y="162.29" width="3.5" height="42.86" fill="#1e3a8a" opacity="0.75"/>
<rect x="933.96" y="393.71" width="3.5" height="34.29" fill="#93c5fd" opacity="0.55"/>
<rect x="947.5" y="239.43" width="3.5" height="188.57" fill="#93c5fd" opacity="0.55"/>
<rect x="85.04" y="410.86" width="3.5" height="17.14" fill="#fca5a5" opacity="0.55"/>
<rect x="98.58" y="410.86" width="3.5" height="17.14" fill="#fca5a5" opacity="0.55"/>
<rect x="112.12" y="410.86" width="3.5" height="17.14" fill="#fca5a5" opacity="0.55"/>
<rect x="125.65" y="410.86" width="3.5" height="17.14" fill="#fca5a5" opacity="0.55"/>
<rect x="139.19" y="410.86" width="3.5" height="17.14" fill="#fca5a5" opacity="0.55"/>
<rect x="152.73" y="410.86" width="3.5" height="17.14" fill="#fca5a5" opacity="0.55"/>
<rect x="166.27" y="410.86" width="3.5" height="17.14" fill="#fca5a5" opacity="0.55"/>
<rect x="179.81" y="410.86" width="3.5" height="17.14" fill="#fca5a5" opacity="0.55"/>
<rect x="193.35" y="410.86" width="3.5" height="17.14" fill="#fca5a5" opacity="0.55"/>
<rect x="206.88" y="410.86" width="3.5" height="17.14" fill="#fca5a5" opacity="0.55"/>
<rect x="220.42" y="410.86" width="3.5" height="17.14" fill="#fca5a5" opacity="0.55"/>
<rect x="233.96" y="410.86" width="3.5" height="17.14" fill="#fca5a5" opacity="0.55"/>
<rect x="247.5" y="410.86" width="3.5" height="17.14" fill="#fca5a5" opacity="0.55"/>
<rect x="261.04" y="410.86" width="3.5" height="17.14" fill="#fca5a5" opacity="0.55"/>
<rect x="274.58" y="410.86" width="3.5" height="17.14" fill="#fca5a5" opacity="0.55"/>
<rect x="288.12" y="410.86" width="3.5" height="17.14" fill="#fca5a5" opacity="0.55"/>
<rect x="301.65" y="393.71" width="3.5" height="34.29" fill="#fca5a5" opacity="0.55"/>
<rect x="301.65" y="385.14" width="3.5" height="8.57" fill="#991b1b" opacity="0.75"/>
<rect x="315.19" y="290.86" width="3.5" height="137.14" fill="#fca5a5" opacity="0.55"/>
<rect x="315.19" y="239.43" width="3.5" height="51.43" fill="#991b1b" opacity="0.75"/>
<rect x="328.73" y="376.57" width="3.5" height="51.43" fill="#fca5a5" opacity="0.55"/>
<rect x="328.73" y="325.14" width="3.5" height="51.43" fill="#991b1b" opacity="0.75"/>
<rect x="342.27" y="265.14" width="3.5" height="162.86" fill="#fca5a5" opacity="0.55"/>
<rect x="342.27" y="256.57" width="3.5" height="8.57" fill="#991b1b" opacity="0.75"/>
<rect x="355.81" y="393.71" width="3.5" height="34.29" fill="#fca5a5" opacity="0.55"/>
<rect x="355.81" y="385.14" width="3.5" height="8.57" fill="#991b1b" opacity="0.75"/>
<rect x="369.35" y="368" width="3.5" height="60" fill="#fca5a5" opacity="0.55"/>
<rect x="369.35" y="359.43" width="3.5" height="8.57" fill="#991b1b" opacity="0.75"/>
<rect x="382.88" y="393.71" width="3.5" height="34.29" fill="#fca5a5" opacity="0.55"/>
<rect x="382.88" y="385.14" width="3.5" height="8.57" fill="#991b1b" opacity="0.75"/>
<rect x="396.42" y="402.29" width="3.5" height="25.71" fill="#991b1b" opacity="0.75"/>
<rect x="409.96" y="419.43" width="3.5" height="8.57" fill="#fca5a5" opacity="0.55"/>
<rect x="409.96" y="402.29" width="3.5" height="17.14" fill="#991b1b" opacity="0.75"/>
<rect x="423.5" y="145.14" width="3.5" height="282.86" fill="#fca5a5" opacity="0.55"/>
<rect x="423.5" y="128" width="3.5" height="17.14" fill="#991b1b" opacity="0.75"/>
<rect x="437.04" y="393.71" width="3.5" height="34.29" fill="#fca5a5" opacity="0.55"/>
<rect x="437.04" y="368" width="3.5" height="25.71" fill="#991b1b" opacity="0.75"/>
<rect x="450.58" y="410.86" width="3.5" height="17.14" fill="#fca5a5" opacity="0.55"/>
<rect x="464.12" y="402.29" width="3.5" height="25.71" fill="#fca5a5" opacity="0.55"/>
<rect x="464.12" y="393.71" width="3.5" height="8.57" fill="#991b1b" opacity="0.75"/>
<rect x="477.65" y="410.86" width="3.5" height="17.14" fill="#fca5a5" opacity="0.55"/>
<rect x="491.19" y="410.86" width="3.5" height="17.14" fill="#fca5a5" opacity="0.55"/>
<rect x="504.73" y="410.86" width="3.5" height="17.14" fill="#fca5a5" opacity="0.55"/>
<rect x="518.27" y="410.86" width="3.5" height="17.14" fill="#fca5a5" opacity="0.55"/>
<rect x="531.81" y="410.86" width="3.5" height="17.14" fill="#fca5a5" opacity="0.55"/>
<rect x="545.35" y="410.86" width="3.5" height="17.14" fill="#fca5a5" opacity="0.55"/>
<rect x="558.88" y="410.86" width="3.5" height="17.14" fill="#fca5a5" opacity="0.55"/>
<rect x="572.42" y="410.86" width="3.5" height="17.14" fill="#fca5a5" opacity="0.55"/>
<rect x="572.42" y="402.29" width="3.5" height="8.57" fill="#991b1b" opacity="0.75"/>
<rect x="682" y="64" width="10" height="10" fill="#93c5fd" opacity="0.75"/>
<text x="697" y="69" dominant-baseline="middle" font-family="Arial, sans-serif" font-size="11" fill="#555">baseline HTTP success</text>
<rect x="832" y="64" width="10" height="10" fill="#1e3a8a" opacity="0.75"/>
<text x="847" y="69" dominant-baseline="middle" font-family="Arial, sans-serif" font-size="11" fill="#555">baseline HTTP failure</text>
<rect x="682" y="82" width="10" height="10" fill="#fca5a5" opacity="0.75"/>
<text x="697" y="87" dominant-baseline="middle" font-family="Arial, sans-serif" font-size="11" fill="#555">CCRS HTTP success</text>
<rect x="832" y="82" width="10" height="10" fill="#991b1b" opacity="0.75"/>
<text x="847" y="87" dominant-baseline="middle" font-family="Arial, sans-serif" font-size="11" fill="#555">CCRS HTTP failure</text>
<text x="512" y="496" text-anchor="middle" font-family="Arial, sans-serif" font-size="13">Movement step number</text>
<text x="18" y="278" text-anchor="middle" transform="rotate(-90 18 278)" font-family="Arial, sans-serif" font-size="13">HTTP calls</text>
</svg>
