<svg xmlns="http://www.w3.org/2000/svg" width="1040" height="520" viewBox="0 0 1040 520" role="img" aria-labelledby="title desc">
<title id="title">Move duration comparison</title>
<desc id="desc">Line chart comparing move-to-move duration by movement step for React experiment runs using a log duration axis.</desc>
<rect width="100%" height="100%" fill="#ffffff"/>
<text x="72" y="28" font-family="Arial, sans-serif" font-size="14" font-weight="700">Move duration comparison</text>
<text x="72" y="50" font-family="Arial, sans-serif" font-size="12" fill="#555">Y-axis is log-base-2 duration in ms. Max observed: 73656 ms.</text>
<line x1="72" y1="428" x2="952" y2="428" stroke="#333" stroke-width="1"/>
<line x1="72" y1="128" x2="72" y2="428" stroke="#333" stroke-width="1"/>
<line x1="72" y1="428" x2="952" y2="428" stroke="#e5e7eb" stroke-width="1"/>
<text x="64" y="428" text-anchor="end" dominant-baseline="middle" font-family="Arial, sans-serif" font-size="11" fill="#222">1000</text>
<line x1="72" y1="380.55" x2="952" y2="380.55" stroke="#e5e7eb" stroke-width="1"/>
<text x="64" y="380.55" text-anchor="end" dominant-baseline="middle" font-family="Arial, sans-serif" font-size="11" fill="#222">2000</text>
<line x1="72" y1="333.09" x2="952" y2="333.09" stroke="#e5e7eb" stroke-width="1"/>
<text x="64" y="333.09" text-anchor="end" dominant-baseline="middle" font-family="Arial, sans-serif" font-size="11" fill="#222">4000</text>
<line x1="72" y1="285.64" x2="952" y2="285.64" stroke="#e5e7eb" stroke-width="1"/>
<text x="64" y="285.64" text-anchor="end" dominant-baseline="middle" font-family="Arial, sans-serif" font-size="11" fill="#222">8000</text>
<line x1="72" y1="238.18" x2="952" y2="238.18" stroke="#e5e7eb" stroke-width="1"/>
<text x="64" y="238.18" text-anchor="end" dominant-baseline="middle" font-family="Arial, sans-serif" font-size="11" fill="#222">16000</text>
<line x1="72" y1="190.73" x2="952" y2="190.73" stroke="#e5e7eb" stroke-width="1"/>
<text x="64" y="190.73" text-anchor="end" dominant-baseline="middle" font-family="Arial, sans-serif" font-size="11" fill="#222">32000</text>
<line x1="72" y1="143.28" x2="952" y2="143.28" stroke="#e5e7eb" stroke-width="1"/>
<text x="64" y="143.28" text-anchor="end" dominant-baseline="middle" font-family="Arial, sans-serif" font-size="11" fill="#222">64000</text>
<line x1="72" y1="128" x2="952" y2="128" stroke="#e5e7eb" stroke-width="1"/>
<text x="64" y="128" text-anchor="end" dominant-baseline="middle" font-family="Arial, sans-serif" font-size="11" fill="#222">80000</text>
<line x1="72" y1="428" x2="72" y2="433" stroke="#333" stroke-width="1"/>
<text x="72" y="446" text-anchor="middle" font-family="Arial, sans-serif" font-size="11" fill="#222">0</text>
<line x1="410.46" y1="428" x2="410.46" y2="433" stroke="#333" stroke-width="1"/>
<text x="410.46" y="446" text-anchor="middle" font-family="Arial, sans-serif" font-size="11" fill="#222">25</text>
<line x1="748.92" y1="428" x2="748.92" y2="433" stroke="#333" stroke-width="1"/>
<text x="748.92" y="446" text-anchor="middle" font-family="Arial, sans-serif" font-size="11" fill="#222">50</text>
<line x1="952" y1="428" x2="952" y2="433" stroke="#333" stroke-width="1"/>
<text x="952" y="446" text-anchor="middle" font-family="Arial, sans-serif" font-size="11" fill="#222">65</text>
<text x="512" y="496" text-anchor="middle" font-family="Arial, sans-serif" font-size="13">Movement step number</text>
<text x="18" y="278" text-anchor="middle" transform="rotate(-90 18 278)" font-family="Arial, sans-serif" font-size="13">Duration ms</text>
<polyline points="99.08,331.79 112.62,329.78 126.15,328.09 139.69,332.92 153.23,331.28 166.77,330.29 180.31,334.04 193.85,329.01 207.38,321.33 220.92,330.52 234.46,332.92 248,310.23 261.54,325.9 275.08,277.65 288.62,331.79 302.15,321.66 315.69,322.87 329.23,317.35 342.77,330.8 356.31,141.29 369.85,282.71 383.38,196.54 396.92,303.67 410.46,303.51 424,289.01 437.54,302.23 451.08,302.88 464.62,305.31 478.15,289.81 491.69,296.3 505.23,299.09 518.77,243.15 532.31,293.92 545.85,296.15 559.38,301.91 572.92,299.35 586.46,303.57 600,317.77 613.54,298.93 627.08,315.28 640.62,318.77 654.15,319.53 667.69,320.17 681.23,321.1 694.77,288.29 708.31,311.98 721.85,322.02 735.38,319.86 748.92,316 762.46,314.02 776,314.54 789.54,308.52 803.08,322.12 816.62,318.7 830.15,141.85 843.69,253.46 857.23,318.73 870.77,304.16 884.31,209.36 897.85,314.85 911.38,140.98 924.92,283.6 938.46,133.66 952,283.05" fill="none" stroke="#1f77b4" stroke-width="2"/>
<line x1="682" y1="34" x2="712" y2="34" stroke="#1f77b4" stroke-width="2"/>
<text x="720" y="34" dominant-baseline="middle" font-family="Arial, sans-serif" font-size="12">001-baseline</text>
<rect x="949" y="280.05" width="6" height="6" fill="#ffffff" stroke="#1f77b4" stroke-width="2"/>
<line x1="952" y1="283.05" x2="938" y2="238.05" stroke="#1f77b4" stroke-width="1" opacity="0.65"/>
<text x="938" y="238.05" text-anchor="end" dominant-baseline="middle" font-family="Arial, sans-serif" font-size="11" fill="#222">cells/12/11 at step 65</text>
<polyline points="99.08,331.74 112.62,334.53 126.15,320.38 139.69,284.01 153.23,330.23 166.77,315.29 180.31,325.82 193.85,267.93 207.38,328.65 220.92,315.14 234.46,328.75 248,326.61 261.54,324.59 275.08,328.06 288.62,316.04 302.15,292.26 315.69,251.65 329.23,138.18 342.77,152.92 356.31,167.14 369.85,250.12 383.38,228.73 396.92,165.49 410.46,217.51 424,136.33 437.54,265.73 451.08,233.2 464.62,318.1 478.15,274.13 491.69,319.03 505.23,321.82 518.77,315.69 532.31,322.29 545.85,320.67 559.38,317 572.92,302.29" fill="none" stroke="#d62728" stroke-width="2"/>
<line x1="682" y1="54" x2="712" y2="54" stroke="#d62728" stroke-width="2"/>
<text x="720" y="54" dominant-baseline="middle" font-family="Arial, sans-serif" font-size="12">002-ccrs</text>
<rect x="569.92" y="299.29" width="6" height="6" fill="#ffffff" stroke="#d62728" stroke-width="2"/>
<line x1="572.92" y1="302.29" x2="586.92" y2="350.29" stroke="#d62728" stroke-width="1" opacity="0.65"/>
<text x="586.92" y="350.29" text-anchor="start" dominant-baseline="middle" font-family="Arial, sans-serif" font-size="11" fill="#222">cells/12/5 at step 37</text>
</svg>
