<svg xmlns="http://www.w3.org/2000/svg" width="1040" height="520" viewBox="0 0 1040 520" role="img" aria-labelledby="title desc">
<title id="title">HTTP calls by move window</title>
<desc id="desc">Stacked bar chart of successful and failed HTTP calls per movement step for React experiment runs.</desc>
<rect width="100%" height="100%" fill="#ffffff"/>
<text x="72" y="28" font-family="Arial, sans-serif" font-size="14" font-weight="700">HTTP calls by move window</text>
<text x="72" y="50" font-family="Arial, sans-serif" font-size="12" fill="#555">Y-axis is linear HTTP calls per move window. Max observed: 30.</text>
<line x1="72" y1="428" x2="952" y2="428" stroke="#333" stroke-width="1"/>
<line x1="72" y1="128" x2="72" y2="428" stroke="#333" stroke-width="1"/>
<line x1="72" y1="428" x2="952" y2="428" stroke="#e5e7eb" stroke-width="1"/>
<text x="64" y="428" text-anchor="end" dominant-baseline="middle" font-family="Arial, sans-serif" font-size="11" fill="#222">0</text>
<line x1="72" y1="410.86" x2="952" y2="410.86" stroke="#e5e7eb" stroke-width="1"/>
<text x="64" y="410.86" text-anchor="end" dominant-baseline="middle" font-family="Arial, sans-serif" font-size="11" fill="#222">2</text>
<line x1="72" y1="393.71" x2="952" y2="393.71" stroke="#e5e7eb" stroke-width="1"/>
<text x="64" y="393.71" text-anchor="end" dominant-baseline="middle" font-family="Arial, sans-serif" font-size="11" fill="#222">4</text>
<line x1="72" y1="376.57" x2="952" y2="376.57" stroke="#e5e7eb" stroke-width="1"/>
<text x="64" y="376.57" text-anchor="end" dominant-baseline="middle" font-family="Arial, sans-serif" font-size="11" fill="#222">6</text>
<line x1="72" y1="359.43" x2="952" y2="359.43" stroke="#e5e7eb" stroke-width="1"/>
<text x="64" y="359.43" text-anchor="end" dominant-baseline="middle" font-family="Arial, sans-serif" font-size="11" fill="#222">8</text>
<line x1="72" y1="342.29" x2="952" y2="342.29" stroke="#e5e7eb" stroke-width="1"/>
<text x="64" y="342.29" text-anchor="end" dominant-baseline="middle" font-family="Arial, sans-serif" font-size="11" fill="#222">10</text>
<line x1="72" y1="325.14" x2="952" y2="325.14" stroke="#e5e7eb" stroke-width="1"/>
<text x="64" y="325.14" text-anchor="end" dominant-baseline="middle" font-family="Arial, sans-serif" font-size="11" fill="#222">12</text>
<line x1="72" y1="308" x2="952" y2="308" stroke="#e5e7eb" stroke-width="1"/>
<text x="64" y="308" text-anchor="end" dominant-baseline="middle" font-family="Arial, sans-serif" font-size="11" fill="#222">14</text>
<line x1="72" y1="290.86" x2="952" y2="290.86" stroke="#e5e7eb" stroke-width="1"/>
<text x="64" y="290.86" text-anchor="end" dominant-baseline="middle" font-family="Arial, sans-serif" font-size="11" fill="#222">16</text>
<line x1="72" y1="273.71" x2="952" y2="273.71" stroke="#e5e7eb" stroke-width="1"/>
<text x="64" y="273.71" text-anchor="end" dominant-baseline="middle" font-family="Arial, sans-serif" font-size="11" fill="#222">18</text>
<line x1="72" y1="256.57" x2="952" y2="256.57" stroke="#e5e7eb" stroke-width="1"/>
<text x="64" y="256.57" text-anchor="end" dominant-baseline="middle" font-family="Arial, sans-serif" font-size="11" fill="#222">20</text>
<line x1="72" y1="239.43" x2="952" y2="239.43" stroke="#e5e7eb" stroke-width="1"/>
<text x="64" y="239.43" text-anchor="end" dominant-baseline="middle" font-family="Arial, sans-serif" font-size="11" fill="#222">22</text>
<line x1="72" y1="222.29" x2="952" y2="222.29" stroke="#e5e7eb" stroke-width="1"/>
<text x="64" y="222.29" text-anchor="end" dominant-baseline="middle" font-family="Arial, sans-serif" font-size="11" fill="#222">24</text>
<line x1="72" y1="205.14" x2="952" y2="205.14" stroke="#e5e7eb" stroke-width="1"/>
<text x="64" y="205.14" text-anchor="end" dominant-baseline="middle" font-family="Arial, sans-serif" font-size="11" fill="#222">26</text>
<line x1="72" y1="188" x2="952" y2="188" stroke="#e5e7eb" stroke-width="1"/>
<text x="64" y="188" text-anchor="end" dominant-baseline="middle" font-family="Arial, sans-serif" font-size="11" fill="#222">28</text>
<line x1="72" y1="170.86" x2="952" y2="170.86" stroke="#e5e7eb" stroke-width="1"/>
<text x="64" y="170.86" text-anchor="end" dominant-baseline="middle" font-family="Arial, sans-serif" font-size="11" fill="#222">30</text>
<line x1="72" y1="153.71" x2="952" y2="153.71" stroke="#e5e7eb" stroke-width="1"/>
<text x="64" y="153.71" text-anchor="end" dominant-baseline="middle" font-family="Arial, sans-serif" font-size="11" fill="#222">32</text>
<line x1="72" y1="136.57" x2="952" y2="136.57" stroke="#e5e7eb" stroke-width="1"/>
<text x="64" y="136.57" text-anchor="end" dominant-baseline="middle" font-family="Arial, sans-serif" font-size="11" fill="#222">34</text>
<line x1="72" y1="128" x2="952" y2="128" stroke="#e5e7eb" stroke-width="1"/>
<text x="64" y="128" text-anchor="end" dominant-baseline="middle" font-family="Arial, sans-serif" font-size="11" fill="#222">35</text>
<line x1="72" y1="428" x2="72" y2="433" stroke="#333" stroke-width="1"/>
<text x="72" y="446" text-anchor="middle" font-family="Arial, sans-serif" font-size="11" fill="#222">0</text>
<line x1="167.65" y1="428" x2="167.65" y2="433" stroke="#333" stroke-width="1"/>
<text x="167.65" y="446" text-anchor="middle" font-family="Arial, sans-serif" font-size="11" fill="#222">25</text>
<line x1="263.3" y1="428" x2="263.3" y2="433" stroke="#333" stroke-width="1"/>
<text x="263.3" y="446" text-anchor="middle" font-family="Arial, sans-serif" font-size="11" fill="#222">50</text>
<line x1="358.96" y1="428" x2="358.96" y2="433" stroke="#333" stroke-width="1"/>
<text x="358.96" y="446" text-anchor="middle" font-family="Arial, sans-serif" font-size="11" fill="#222">75</text>
<line x1="454.61" y1="428" x2="454.61" y2="433" stroke="#333" stroke-width="1"/>
<text x="454.61" y="446" text-anchor="middle" font-family="Arial, sans-serif" font-size="11" fill="#222">100</text>
<line x1="550.26" y1="428" x2="550.26" y2="433" stroke="#333" stroke-width="1"/>
<text x="550.26" y="446" text-anchor="middle" font-family="Arial, sans-serif" font-size="11" fill="#222">125</text>
<line x1="645.91" y1="428" x2="645.91" y2="433" stroke="#333" stroke-width="1"/>
<text x="645.91" y="446" text-anchor="middle" font-family="Arial, sans-serif" font-size="11" fill="#222">150</text>
<line x1="741.57" y1="428" x2="741.57" y2="433" stroke="#333" stroke-width="1"/>
<text x="741.57" y="446" text-anchor="middle" font-family="Arial, sans-serif" font-size="11" fill="#222">175</text>
<line x1="837.22" y1="428" x2="837.22" y2="433" stroke="#333" stroke-width="1"/>
<text x="837.22" y="446" text-anchor="middle" font-family="Arial, sans-serif" font-size="11" fill="#222">200</text>
<line x1="932.87" y1="428" x2="932.87" y2="433" stroke="#333" stroke-width="1"/>
<text x="932.87" y="446" text-anchor="middle" font-family="Arial, sans-serif" font-size="11" fill="#222">225</text>
<rect x="72.83" y="410.86" width="2.5" height="17.14" fill="#93c5fd" opacity="0.55"/>
<rect x="76.65" y="410.86" width="2.5" height="17.14" fill="#93c5fd" opacity="0.55"/>
<rect x="80.48" y="410.86" width="2.5" height="17.14" fill="#93c5fd" opacity="0.55"/>
<rect x="84.3" y="410.86" width="2.5" height="17.14" fill="#93c5fd" opacity="0.55"/>
<rect x="88.13" y="410.86" width="2.5" height="17.14" fill="#93c5fd" opacity="0.55"/>
<rect x="91.96" y="410.86" width="2.5" height="17.14" fill="#93c5fd" opacity="0.55"/>
<rect x="95.78" y="410.86" width="2.5" height="17.14" fill="#93c5fd" opacity="0.55"/>
<rect x="99.61" y="410.86" width="2.5" height="17.14" fill="#93c5fd" opacity="0.55"/>
<rect x="103.43" y="410.86" width="2.5" height="17.14" fill="#93c5fd" opacity="0.55"/>
<rect x="107.26" y="402.29" width="2.5" height="25.71" fill="#93c5fd" opacity="0.55"/>
<rect x="111.09" y="410.86" width="2.5" height="17.14" fill="#93c5fd" opacity="0.55"/>
<rect x="114.91" y="410.86" width="2.5" height="17.14" fill="#93c5fd" opacity="0.55"/>
<rect x="118.74" y="410.86" width="2.5" height="17.14" fill="#93c5fd" opacity="0.55"/>
<rect x="122.57" y="410.86" width="2.5" height="17.14" fill="#93c5fd" opacity="0.55"/>
<rect x="126.39" y="410.86" width="2.5" height="17.14" fill="#93c5fd" opacity="0.55"/>
<rect x="130.22" y="410.86" width="2.5" height="17.14" fill="#93c5fd" opacity="0.55"/>
<rect x="134.04" y="410.86" width="2.5" height="17.14" fill="#93c5fd" opacity="0.55"/>
<rect x="137.87" y="410.86" width="2.5" height="17.14" fill="#93c5fd" opacity="0.55"/>
<rect x="141.7" y="402.29" width="2.5" height="25.71" fill="#93c5fd" opacity="0.55"/>
<rect x="145.52" y="410.86" width="2.5" height="17.14" fill="#93c5fd" opacity="0.55"/>
<rect x="149.35" y="402.29" width="2.5" height="25.71" fill="#93c5fd" opacity="0.55"/>
<rect x="153.17" y="359.43" width="2.5" height="68.57" fill="#93c5fd" opacity="0.55"/>
<rect x="157" y="402.29" width="2.5" height="25.71" fill="#93c5fd" opacity="0.55"/>
<rect x="160.83" y="410.86" width="2.5" height="17.14" fill="#93c5fd" opacity="0.55"/>
<rect x="164.65" y="402.29" width="2.5" height="25.71" fill="#93c5fd" opacity="0.55"/>
<rect x="168.48" y="402.29" width="2.5" height="25.71" fill="#93c5fd" opacity="0.55"/>
<rect x="172.3" y="402.29" width="2.5" height="25.71" fill="#93c5fd" opacity="0.55"/>
<rect x="176.13" y="393.71" width="2.5" height="34.29" fill="#93c5fd" opacity="0.55"/>
<rect x="179.96" y="402.29" width="2.5" height="25.71" fill="#93c5fd" opacity="0.55"/>
<rect x="183.78" y="325.14" width="2.5" height="102.86" fill="#93c5fd" opacity="0.55"/>
<rect x="187.61" y="393.71" width="2.5" height="34.29" fill="#93c5fd" opacity="0.55"/>
<rect x="191.43" y="248" width="2.5" height="180" fill="#93c5fd" opacity="0.55"/>
<rect x="195.26" y="410.86" width="2.5" height="17.14" fill="#93c5fd" opacity="0.55"/>
<rect x="199.09" y="410.86" width="2.5" height="17.14" fill="#93c5fd" opacity="0.55"/>
<rect x="202.91" y="376.57" width="2.5" height="51.43" fill="#93c5fd" opacity="0.55"/>
<rect x="206.74" y="410.86" width="2.5" height="17.14" fill="#93c5fd" opacity="0.55"/>
<rect x="210.57" y="402.29" width="2.5" height="25.71" fill="#93c5fd" opacity="0.55"/>
<rect x="214.39" y="410.86" width="2.5" height="17.14" fill="#93c5fd" opacity="0.55"/>
<rect x="218.22" y="230.86" width="2.5" height="197.14" fill="#93c5fd" opacity="0.55"/>
<rect x="222.04" y="402.29" width="2.5" height="25.71" fill="#93c5fd" opacity="0.55"/>
<rect x="225.87" y="402.29" width="2.5" height="25.71" fill="#93c5fd" opacity="0.55"/>
<rect x="229.7" y="410.86" width="2.5" height="17.14" fill="#93c5fd" opacity="0.55"/>
<rect x="233.52" y="410.86" width="2.5" height="17.14" fill="#93c5fd" opacity="0.55"/>
<rect x="237.35" y="402.29" width="2.5" height="25.71" fill="#93c5fd" opacity="0.55"/>
<rect x="241.17" y="402.29" width="2.5" height="25.71" fill="#93c5fd" opacity="0.55"/>
<rect x="245" y="410.86" width="2.5" height="17.14" fill="#93c5fd" opacity="0.55"/>
<rect x="248.83" y="410.86" width="2.5" height="17.14" fill="#93c5fd" opacity="0.55"/>
<rect x="252.65" y="410.86" width="2.5" height="17.14" fill="#93c5fd" opacity="0.55"/>
<rect x="256.48" y="402.29" width="2.5" height="25.71" fill="#93c5fd" opacity="0.55"/>
<rect x="256.48" y="393.71" width="2.5" height="8.57" fill="#1e3a8a" opacity="0.75"/>
<rect x="260.3" y="402.29" width="2.5" height="25.71" fill="#93c5fd" opacity="0.55"/>
<rect x="264.13" y="410.86" width="2.5" height="17.14" fill="#93c5fd" opacity="0.55"/>
<rect x="267.96" y="410.86" width="2.5" height="17.14" fill="#93c5fd" opacity="0.55"/>
<rect x="271.78" y="410.86" width="2.5" height="17.14" fill="#93c5fd" opacity="0.55"/>
<rect x="275.61" y="410.86" width="2.5" height="17.14" fill="#93c5fd" opacity="0.55"/>
<rect x="279.43" y="410.86" width="2.5" height="17.14" fill="#93c5fd" opacity="0.55"/>
<rect x="283.26" y="410.86" width="2.5" height="17.14" fill="#93c5fd" opacity="0.55"/>
<rect x="287.09" y="393.71" width="2.5" height="34.29" fill="#93c5fd" opacity="0.55"/>
<rect x="290.91" y="385.14" width="2.5" height="42.86" fill="#93c5fd" opacity="0.55"/>
<rect x="294.74" y="385.14" width="2.5" height="42.86" fill="#93c5fd" opacity="0.55"/>
<rect x="298.57" y="402.29" width="2.5" height="25.71" fill="#93c5fd" opacity="0.55"/>
<rect x="302.39" y="239.43" width="2.5" height="188.57" fill="#93c5fd" opacity="0.55"/>
<rect x="306.22" y="402.29" width="2.5" height="25.71" fill="#93c5fd" opacity="0.55"/>
<rect x="310.04" y="410.86" width="2.5" height="17.14" fill="#93c5fd" opacity="0.55"/>
<rect x="313.87" y="410.86" width="2.5" height="17.14" fill="#93c5fd" opacity="0.55"/>
<rect x="317.7" y="402.29" width="2.5" height="25.71" fill="#93c5fd" opacity="0.55"/>
<rect x="321.52" y="410.86" width="2.5" height="17.14" fill="#93c5fd" opacity="0.55"/>
<rect x="325.35" y="410.86" width="2.5" height="17.14" fill="#93c5fd" opacity="0.55"/>
<rect x="325.35" y="402.29" width="2.5" height="8.57" fill="#1e3a8a" opacity="0.75"/>
<rect x="329.17" y="402.29" width="2.5" height="25.71" fill="#93c5fd" opacity="0.55"/>
<rect x="333" y="402.29" width="2.5" height="25.71" fill="#93c5fd" opacity="0.55"/>
<rect x="336.83" y="325.14" width="2.5" height="102.86" fill="#93c5fd" opacity="0.55"/>
<rect x="340.65" y="325.14" width="2.5" height="102.86" fill="#93c5fd" opacity="0.55"/>
<rect x="344.48" y="273.71" width="2.5" height="154.29" fill="#93c5fd" opacity="0.55"/>
<rect x="348.3" y="410.86" width="2.5" height="17.14" fill="#93c5fd" opacity="0.55"/>
<rect x="352.13" y="410.86" width="2.5" height="17.14" fill="#93c5fd" opacity="0.55"/>
<rect x="355.96" y="410.86" width="2.5" height="17.14" fill="#93c5fd" opacity="0.55"/>
<rect x="359.78" y="410.86" width="2.5" height="17.14" fill="#93c5fd" opacity="0.55"/>
<rect x="363.61" y="410.86" width="2.5" height="17.14" fill="#93c5fd" opacity="0.55"/>
<rect x="367.43" y="410.86" width="2.5" height="17.14" fill="#93c5fd" opacity="0.55"/>
<rect x="371.26" y="410.86" width="2.5" height="17.14" fill="#93c5fd" opacity="0.55"/>
<rect x="375.09" y="410.86" width="2.5" height="17.14" fill="#93c5fd" opacity="0.55"/>
<rect x="378.91" y="333.71" width="2.5" height="94.29" fill="#93c5fd" opacity="0.55"/>
<rect x="382.74" y="410.86" width="2.5" height="17.14" fill="#93c5fd" opacity="0.55"/>
<rect x="386.57" y="402.29" width="2.5" height="25.71" fill="#93c5fd" opacity="0.55"/>
<rect x="390.39" y="410.86" width="2.5" height="17.14" fill="#93c5fd" opacity="0.55"/>
<rect x="394.22" y="410.86" width="2.5" height="17.14" fill="#93c5fd" opacity="0.55"/>
<rect x="398.04" y="410.86" width="2.5" height="17.14" fill="#93c5fd" opacity="0.55"/>
<rect x="401.87" y="402.29" width="2.5" height="25.71" fill="#93c5fd" opacity="0.55"/>
<rect x="405.7" y="410.86" width="2.5" height="17.14" fill="#93c5fd" opacity="0.55"/>
<rect x="409.52" y="410.86" width="2.5" height="17.14" fill="#93c5fd" opacity="0.55"/>
<rect x="413.35" y="410.86" width="2.5" height="17.14" fill="#93c5fd" opacity="0.55"/>
<rect x="417.17" y="308" width="2.5" height="120" fill="#93c5fd" opacity="0.55"/>
<rect x="421" y="385.14" width="2.5" height="42.86" fill="#93c5fd" opacity="0.55"/>
<rect x="424.83" y="213.71" width="2.5" height="214.29" fill="#93c5fd" opacity="0.55"/>
<rect x="428.65" y="402.29" width="2.5" height="25.71" fill="#93c5fd" opacity="0.55"/>
<rect x="432.48" y="205.14" width="2.5" height="222.86" fill="#93c5fd" opacity="0.55"/>
<rect x="436.3" y="410.86" width="2.5" height="17.14" fill="#93c5fd" opacity="0.55"/>
<rect x="440.13" y="299.43" width="2.5" height="128.57" fill="#93c5fd" opacity="0.55"/>
<rect x="443.96" y="410.86" width="2.5" height="17.14" fill="#93c5fd" opacity="0.55"/>
<rect x="447.78" y="402.29" width="2.5" height="25.71" fill="#93c5fd" opacity="0.55"/>
<rect x="451.61" y="410.86" width="2.5" height="17.14" fill="#93c5fd" opacity="0.55"/>
<rect x="455.43" y="402.29" width="2.5" height="25.71" fill="#93c5fd" opacity="0.55"/>
<rect x="459.26" y="368" width="2.5" height="60" fill="#93c5fd" opacity="0.55"/>
<rect x="459.26" y="359.43" width="2.5" height="8.57" fill="#1e3a8a" opacity="0.75"/>
<rect x="463.09" y="410.86" width="2.5" height="17.14" fill="#93c5fd" opacity="0.55"/>
<rect x="466.91" y="410.86" width="2.5" height="17.14" fill="#93c5fd" opacity="0.55"/>
<rect x="470.74" y="368" width="2.5" height="60" fill="#93c5fd" opacity="0.55"/>
<rect x="470.74" y="350.86" width="2.5" height="17.14" fill="#1e3a8a" opacity="0.75"/>
<rect x="474.57" y="402.29" width="2.5" height="25.71" fill="#93c5fd" opacity="0.55"/>
<rect x="478.39" y="402.29" width="2.5" height="25.71" fill="#93c5fd" opacity="0.55"/>
<rect x="482.22" y="410.86" width="2.5" height="17.14" fill="#93c5fd" opacity="0.55"/>
<rect x="486.04" y="410.86" width="2.5" height="17.14" fill="#93c5fd" opacity="0.55"/>
<rect x="489.87" y="410.86" width="2.5" height="17.14" fill="#93c5fd" opacity="0.55"/>
<rect x="493.7" y="410.86" width="2.5" height="17.14" fill="#93c5fd" opacity="0.55"/>
<rect x="497.52" y="410.86" width="2.5" height="17.14" fill="#93c5fd" opacity="0.55"/>
<rect x="501.35" y="410.86" width="2.5" height="17.14" fill="#93c5fd" opacity="0.55"/>
<rect x="505.17" y="410.86" width="2.5" height="17.14" fill="#93c5fd" opacity="0.55"/>
<rect x="505.17" y="402.29" width="2.5" height="8.57" fill="#1e3a8a" opacity="0.75"/>
<rect x="509" y="410.86" width="2.5" height="17.14" fill="#93c5fd" opacity="0.55"/>
<rect x="512.83" y="410.86" width="2.5" height="17.14" fill="#93c5fd" opacity="0.55"/>
<rect x="516.65" y="410.86" width="2.5" height="17.14" fill="#93c5fd" opacity="0.55"/>
<rect x="520.48" y="410.86" width="2.5" height="17.14" fill="#93c5fd" opacity="0.55"/>
<rect x="524.3" y="402.29" width="2.5" height="25.71" fill="#93c5fd" opacity="0.55"/>
<rect x="528.13" y="402.29" width="2.5" height="25.71" fill="#93c5fd" opacity="0.55"/>
<rect x="531.96" y="410.86" width="2.5" height="17.14" fill="#93c5fd" opacity="0.55"/>
<rect x="535.78" y="410.86" width="2.5" height="17.14" fill="#93c5fd" opacity="0.55"/>
<rect x="539.61" y="402.29" width="2.5" height="25.71" fill="#93c5fd" opacity="0.55"/>
<rect x="543.43" y="410.86" width="2.5" height="17.14" fill="#93c5fd" opacity="0.55"/>
<rect x="547.26" y="402.29" width="2.5" height="25.71" fill="#93c5fd" opacity="0.55"/>
<rect x="551.09" y="410.86" width="2.5" height="17.14" fill="#93c5fd" opacity="0.55"/>
<rect x="554.91" y="410.86" width="2.5" height="17.14" fill="#93c5fd" opacity="0.55"/>
<rect x="558.74" y="393.71" width="2.5" height="34.29" fill="#93c5fd" opacity="0.55"/>
<rect x="562.57" y="179.43" width="2.5" height="248.57" fill="#93c5fd" opacity="0.55"/>
<rect x="566.39" y="410.86" width="2.5" height="17.14" fill="#93c5fd" opacity="0.55"/>
<rect x="570.22" y="213.71" width="2.5" height="214.29" fill="#93c5fd" opacity="0.55"/>
<rect x="574.04" y="410.86" width="2.5" height="17.14" fill="#93c5fd" opacity="0.55"/>
<rect x="577.87" y="410.86" width="2.5" height="17.14" fill="#93c5fd" opacity="0.55"/>
<rect x="581.7" y="402.29" width="2.5" height="25.71" fill="#93c5fd" opacity="0.55"/>
<rect x="585.52" y="410.86" width="2.5" height="17.14" fill="#93c5fd" opacity="0.55"/>
<rect x="589.35" y="342.29" width="2.5" height="85.71" fill="#93c5fd" opacity="0.55"/>
<rect x="589.35" y="325.14" width="2.5" height="17.14" fill="#1e3a8a" opacity="0.75"/>
<rect x="593.17" y="410.86" width="2.5" height="17.14" fill="#93c5fd" opacity="0.55"/>
<rect x="597" y="410.86" width="2.5" height="17.14" fill="#93c5fd" opacity="0.55"/>
<rect x="600.83" y="333.71" width="2.5" height="94.29" fill="#93c5fd" opacity="0.55"/>
<rect x="600.83" y="299.43" width="2.5" height="34.29" fill="#1e3a8a" opacity="0.75"/>
<rect x="604.65" y="402.29" width="2.5" height="25.71" fill="#93c5fd" opacity="0.55"/>
<rect x="608.48" y="393.71" width="2.5" height="34.29" fill="#93c5fd" opacity="0.55"/>
<rect x="608.48" y="385.14" width="2.5" height="8.57" fill="#1e3a8a" opacity="0.75"/>
<rect x="612.3" y="402.29" width="2.5" height="25.71" fill="#93c5fd" opacity="0.55"/>
<rect x="616.13" y="402.29" width="2.5" height="25.71" fill="#93c5fd" opacity="0.55"/>
<rect x="619.96" y="410.86" width="2.5" height="17.14" fill="#93c5fd" opacity="0.55"/>
<rect x="623.78" y="410.86" width="2.5" height="17.14" fill="#93c5fd" opacity="0.55"/>
<rect x="627.61" y="410.86" width="2.5" height="17.14" fill="#93c5fd" opacity="0.55"/>
<rect x="631.43" y="410.86" width="2.5" height="17.14" fill="#93c5fd" opacity="0.55"/>
<rect x="635.26" y="410.86" width="2.5" height="17.14" fill="#93c5fd" opacity="0.55"/>
<rect x="639.09" y="410.86" width="2.5" height="17.14" fill="#93c5fd" opacity="0.55"/>
<rect x="642.91" y="410.86" width="2.5" height="17.14" fill="#93c5fd" opacity="0.55"/>
<rect x="646.74" y="410.86" width="2.5" height="17.14" fill="#93c5fd" opacity="0.55"/>
<rect x="650.57" y="402.29" width="2.5" height="25.71" fill="#93c5fd" opacity="0.55"/>
<rect x="654.39" y="402.29" width="2.5" height="25.71" fill="#93c5fd" opacity="0.55"/>
<rect x="658.22" y="402.29" width="2.5" height="25.71" fill="#93c5fd" opacity="0.55"/>
<rect x="662.04" y="402.29" width="2.5" height="25.71" fill="#93c5fd" opacity="0.55"/>
<rect x="665.87" y="410.86" width="2.5" height="17.14" fill="#93c5fd" opacity="0.55"/>
<rect x="669.7" y="402.29" width="2.5" height="25.71" fill="#93c5fd" opacity="0.55"/>
<rect x="673.52" y="410.86" width="2.5" height="17.14" fill="#93c5fd" opacity="0.55"/>
<rect x="677.35" y="410.86" width="2.5" height="17.14" fill="#93c5fd" opacity="0.55"/>
<rect x="677.35" y="402.29" width="2.5" height="8.57" fill="#1e3a8a" opacity="0.75"/>
<rect x="681.17" y="282.29" width="2.5" height="145.71" fill="#93c5fd" opacity="0.55"/>
<rect x="681.17" y="239.43" width="2.5" height="42.86" fill="#1e3a8a" opacity="0.75"/>
<rect x="685" y="410.86" width="2.5" height="17.14" fill="#93c5fd" opacity="0.55"/>
<rect x="688.83" y="402.29" width="2.5" height="25.71" fill="#93c5fd" opacity="0.55"/>
<rect x="692.65" y="385.14" width="2.5" height="42.86" fill="#93c5fd" opacity="0.55"/>
<rect x="696.48" y="402.29" width="2.5" height="25.71" fill="#93c5fd" opacity="0.55"/>
<rect x="700.3" y="410.86" width="2.5" height="17.14" fill="#93c5fd" opacity="0.55"/>
<rect x="704.13" y="410.86" width="2.5" height="17.14" fill="#93c5fd" opacity="0.55"/>
<rect x="707.96" y="410.86" width="2.5" height="17.14" fill="#93c5fd" opacity="0.55"/>
<rect x="711.78" y="402.29" width="2.5" height="25.71" fill="#93c5fd" opacity="0.55"/>
<rect x="715.61" y="410.86" width="2.5" height="17.14" fill="#93c5fd" opacity="0.55"/>
<rect x="719.43" y="410.86" width="2.5" height="17.14" fill="#93c5fd" opacity="0.55"/>
<rect x="723.26" y="402.29" width="2.5" height="25.71" fill="#93c5fd" opacity="0.55"/>
<rect x="727.09" y="410.86" width="2.5" height="17.14" fill="#93c5fd" opacity="0.55"/>
<rect x="730.91" y="410.86" width="2.5" height="17.14" fill="#93c5fd" opacity="0.55"/>
<rect x="734.74" y="402.29" width="2.5" height="25.71" fill="#93c5fd" opacity="0.55"/>
<rect x="738.57" y="265.14" width="2.5" height="162.86" fill="#93c5fd" opacity="0.55"/>
<rect x="738.57" y="256.57" width="2.5" height="8.57" fill="#1e3a8a" opacity="0.75"/>
<rect x="742.39" y="385.14" width="2.5" height="42.86" fill="#93c5fd" opacity="0.55"/>
<rect x="742.39" y="376.57" width="2.5" height="8.57" fill="#1e3a8a" opacity="0.75"/>
<rect x="746.22" y="402.29" width="2.5" height="25.71" fill="#93c5fd" opacity="0.55"/>
<rect x="750.04" y="402.29" width="2.5" height="25.71" fill="#93c5fd" opacity="0.55"/>
<rect x="753.87" y="316.57" width="2.5" height="111.43" fill="#93c5fd" opacity="0.55"/>
<rect x="753.87" y="308" width="2.5" height="8.57" fill="#1e3a8a" opacity="0.75"/>
<rect x="757.7" y="402.29" width="2.5" height="25.71" fill="#93c5fd" opacity="0.55"/>
<rect x="761.52" y="376.57" width="2.5" height="51.43" fill="#93c5fd" opacity="0.55"/>
<rect x="765.35" y="410.86" width="2.5" height="17.14" fill="#93c5fd" opacity="0.55"/>
<rect x="769.17" y="402.29" width="2.5" height="25.71" fill="#93c5fd" opacity="0.55"/>
<rect x="773" y="410.86" width="2.5" height="17.14" fill="#93c5fd" opacity="0.55"/>
<rect x="776.83" y="410.86" width="2.5" height="17.14" fill="#93c5fd" opacity="0.55"/>
<rect x="780.65" y="410.86" width="2.5" height="17.14" fill="#93c5fd" opacity="0.55"/>
<rect x="784.48" y="402.29" width="2.5" height="25.71" fill="#93c5fd" opacity="0.55"/>
<rect x="784.48" y="393.71" width="2.5" height="8.57" fill="#1e3a8a" opacity="0.75"/>
<rect x="788.3" y="410.86" width="2.5" height="17.14" fill="#93c5fd" opacity="0.55"/>
<rect x="792.13" y="410.86" width="2.5" height="17.14" fill="#93c5fd" opacity="0.55"/>
<rect x="795.96" y="402.29" width="2.5" height="25.71" fill="#93c5fd" opacity="0.55"/>
<rect x="795.96" y="393.71" width="2.5" height="8.57" fill="#1e3a8a" opacity="0.75"/>
<rect x="799.78" y="402.29" width="2.5" height="25.71" fill="#93c5fd" opacity="0.55"/>
<rect x="803.61" y="402.29" width="2.5" height="25.71" fill="#93c5fd" opacity="0.55"/>
<rect x="807.43" y="402.29" width="2.5" height="25.71" fill="#93c5fd" opacity="0.55"/>
<rect x="811.26" y="410.86" width="2.5" height="17.14" fill="#93c5fd" opacity="0.55"/>
<rect x="815.09" y="410.86" width="2.5" height="17.14" fill="#93c5fd" opacity="0.55"/>
<rect x="818.91" y="410.86" width="2.5" height="17.14" fill="#93c5fd" opacity="0.55"/>
<rect x="822.74" y="402.29" width="2.5" height="25.71" fill="#93c5fd" opacity="0.55"/>
<rect x="826.57" y="333.71" width="2.5" height="94.29" fill="#93c5fd" opacity="0.55"/>
<rect x="830.39" y="265.14" width="2.5" height="162.86" fill="#93c5fd" opacity="0.55"/>
<rect x="834.22" y="410.86" width="2.5" height="17.14" fill="#93c5fd" opacity="0.55"/>
<rect x="834.22" y="402.29" width="2.5" height="8.57" fill="#1e3a8a" opacity="0.75"/>
<rect x="838.04" y="410.86" width="2.5" height="17.14" fill="#93c5fd" opacity="0.55"/>
<rect x="841.87" y="402.29" width="2.5" height="25.71" fill="#93c5fd" opacity="0.55"/>
<rect x="841.87" y="393.71" width="2.5" height="8.57" fill="#1e3a8a" opacity="0.75"/>
<rect x="845.7" y="402.29" width="2.5" height="25.71" fill="#93c5fd" opacity="0.55"/>
<rect x="849.52" y="402.29" width="2.5" height="25.71" fill="#93c5fd" opacity="0.55"/>
<rect x="853.35" y="410.86" width="2.5" height="17.14" fill="#93c5fd" opacity="0.55"/>
<rect x="857.17" y="410.86" width="2.5" height="17.14" fill="#93c5fd" opacity="0.55"/>
<rect x="861" y="368" width="2.5" height="60" fill="#93c5fd" opacity="0.55"/>
<rect x="861" y="359.43" width="2.5" height="8.57" fill="#1e3a8a" opacity="0.75"/>
<rect x="864.83" y="410.86" width="2.5" height="17.14" fill="#93c5fd" opacity="0.55"/>
<rect x="868.65" y="273.71" width="2.5" height="154.29" fill="#93c5fd" opacity="0.55"/>
<rect x="872.48" y="410.86" width="2.5" height="17.14" fill="#93c5fd" opacity="0.55"/>
<rect x="876.3" y="402.29" width="2.5" height="25.71" fill="#93c5fd" opacity="0.55"/>
<rect x="880.13" y="230.86" width="2.5" height="197.14" fill="#93c5fd" opacity="0.55"/>
<rect x="880.13" y="222.29" width="2.5" height="8.57" fill="#1e3a8a" opacity="0.75"/>
<rect x="883.96" y="410.86" width="2.5" height="17.14" fill="#93c5fd" opacity="0.55"/>
<rect x="887.78" y="410.86" width="2.5" height="17.14" fill="#93c5fd" opacity="0.55"/>
<rect x="891.61" y="410.86" width="2.5" height="17.14" fill="#93c5fd" opacity="0.55"/>
<rect x="891.61" y="402.29" width="2.5" height="8.57" fill="#1e3a8a" opacity="0.75"/>
<rect x="895.43" y="410.86" width="2.5" height="17.14" fill="#93c5fd" opacity="0.55"/>
<rect x="899.26" y="410.86" width="2.5" height="17.14" fill="#93c5fd" opacity="0.55"/>
<rect x="903.09" y="410.86" width="2.5" height="17.14" fill="#93c5fd" opacity="0.55"/>
<rect x="906.91" y="410.86" width="2.5" height="17.14" fill="#93c5fd" opacity="0.55"/>
<rect x="910.74" y="410.86" width="2.5" height="17.14" fill="#93c5fd" opacity="0.55"/>
<rect x="914.57" y="230.86" width="2.5" height="197.14" fill="#93c5fd" opacity="0.55"/>
<rect x="914.57" y="222.29" width="2.5" height="8.57" fill="#1e3a8a" opacity="0.75"/>
<rect x="918.39" y="410.86" width="2.5" height="17.14" fill="#93c5fd" opacity="0.55"/>
<rect x="922.22" y="316.57" width="2.5" height="111.43" fill="#93c5fd" opacity="0.55"/>
<rect x="926.04" y="410.86" width="2.5" height="17.14" fill="#93c5fd" opacity="0.55"/>
<rect x="929.87" y="410.86" width="2.5" height="17.14" fill="#93c5fd" opacity="0.55"/>
<rect x="933.7" y="410.86" width="2.5" height="17.14" fill="#93c5fd" opacity="0.55"/>
<rect x="933.7" y="402.29" width="2.5" height="8.57" fill="#1e3a8a" opacity="0.75"/>
<rect x="937.52" y="393.71" width="2.5" height="34.29" fill="#93c5fd" opacity="0.55"/>
<rect x="941.35" y="410.86" width="2.5" height="17.14" fill="#93c5fd" opacity="0.55"/>
<rect x="945.17" y="402.29" width="2.5" height="25.71" fill="#93c5fd" opacity="0.55"/>
<rect x="949" y="410.86" width="2.5" height="17.14" fill="#93c5fd" opacity="0.55"/>
<rect x="75.83" y="410.86" width="2.5" height="17.14" fill="#93c5fd" opacity="0.55"/>
<rect x="79.65" y="410.86" width="2.5" height="17.14" fill="#93c5fd" opacity="0.55"/>
<rect x="83.48" y="410.86" width="2.5" height="17.14" fill="#93c5fd" opacity="0.55"/>
<rect x="87.3" y="410.86" width="2.5" height="17.14" fill="#93c5fd" opacity="0.55"/>
<rect x="91.13" y="410.86" width="2.5" height="17.14" fill="#93c5fd" opacity="0.55"/>
<rect x="94.96" y="410.86" width="2.5" height="17.14" fill="#93c5fd" opacity="0.55"/>
<rect x="98.78" y="410.86" width="2.5" height="17.14" fill="#93c5fd" opacity="0.55"/>
<rect x="102.61" y="410.86" width="2.5" height="17.14" fill="#93c5fd" opacity="0.55"/>
<rect x="106.43" y="410.86" width="2.5" height="17.14" fill="#93c5fd" opacity="0.55"/>
<rect x="110.26" y="410.86" width="2.5" height="17.14" fill="#93c5fd" opacity="0.55"/>
<rect x="114.09" y="410.86" width="2.5" height="17.14" fill="#93c5fd" opacity="0.55"/>
<rect x="117.91" y="410.86" width="2.5" height="17.14" fill="#93c5fd" opacity="0.55"/>
<rect x="121.74" y="410.86" width="2.5" height="17.14" fill="#93c5fd" opacity="0.55"/>
<rect x="125.57" y="410.86" width="2.5" height="17.14" fill="#93c5fd" opacity="0.55"/>
<rect x="129.39" y="410.86" width="2.5" height="17.14" fill="#93c5fd" opacity="0.55"/>
<rect x="133.22" y="410.86" width="2.5" height="17.14" fill="#93c5fd" opacity="0.55"/>
<rect x="137.04" y="410.86" width="2.5" height="17.14" fill="#93c5fd" opacity="0.55"/>
<rect x="140.87" y="410.86" width="2.5" height="17.14" fill="#93c5fd" opacity="0.55"/>
<rect x="144.7" y="393.71" width="2.5" height="34.29" fill="#93c5fd" opacity="0.55"/>
<rect x="148.52" y="410.86" width="2.5" height="17.14" fill="#93c5fd" opacity="0.55"/>
<rect x="152.35" y="410.86" width="2.5" height="17.14" fill="#93c5fd" opacity="0.55"/>
<rect x="156.17" y="410.86" width="2.5" height="17.14" fill="#93c5fd" opacity="0.55"/>
<rect x="160" y="410.86" width="2.5" height="17.14" fill="#93c5fd" opacity="0.55"/>
<rect x="163.83" y="410.86" width="2.5" height="17.14" fill="#93c5fd" opacity="0.55"/>
<rect x="167.65" y="410.86" width="2.5" height="17.14" fill="#93c5fd" opacity="0.55"/>
<rect x="171.48" y="410.86" width="2.5" height="17.14" fill="#93c5fd" opacity="0.55"/>
<rect x="175.3" y="410.86" width="2.5" height="17.14" fill="#93c5fd" opacity="0.55"/>
<rect x="179.13" y="410.86" width="2.5" height="17.14" fill="#93c5fd" opacity="0.55"/>
<rect x="182.96" y="410.86" width="2.5" height="17.14" fill="#93c5fd" opacity="0.55"/>
<rect x="186.78" y="410.86" width="2.5" height="17.14" fill="#93c5fd" opacity="0.55"/>
<rect x="190.61" y="410.86" width="2.5" height="17.14" fill="#93c5fd" opacity="0.55"/>
<rect x="194.43" y="410.86" width="2.5" height="17.14" fill="#93c5fd" opacity="0.55"/>
<rect x="198.26" y="410.86" width="2.5" height="17.14" fill="#93c5fd" opacity="0.55"/>
<rect x="202.09" y="410.86" width="2.5" height="17.14" fill="#93c5fd" opacity="0.55"/>
<rect x="205.91" y="410.86" width="2.5" height="17.14" fill="#93c5fd" opacity="0.55"/>
<rect x="209.74" y="410.86" width="2.5" height="17.14" fill="#93c5fd" opacity="0.55"/>
<rect x="213.57" y="410.86" width="2.5" height="17.14" fill="#93c5fd" opacity="0.55"/>
<rect x="217.39" y="410.86" width="2.5" height="17.14" fill="#93c5fd" opacity="0.55"/>
<rect x="221.22" y="376.57" width="2.5" height="51.43" fill="#93c5fd" opacity="0.55"/>
<rect x="225.04" y="410.86" width="2.5" height="17.14" fill="#93c5fd" opacity="0.55"/>
<rect x="228.87" y="410.86" width="2.5" height="17.14" fill="#93c5fd" opacity="0.55"/>
<rect x="232.7" y="410.86" width="2.5" height="17.14" fill="#93c5fd" opacity="0.55"/>
<rect x="236.52" y="410.86" width="2.5" height="17.14" fill="#93c5fd" opacity="0.55"/>
<rect x="240.35" y="410.86" width="2.5" height="17.14" fill="#93c5fd" opacity="0.55"/>
<rect x="244.17" y="410.86" width="2.5" height="17.14" fill="#93c5fd" opacity="0.55"/>
<rect x="248" y="410.86" width="2.5" height="17.14" fill="#93c5fd" opacity="0.55"/>
<rect x="251.83" y="410.86" width="2.5" height="17.14" fill="#93c5fd" opacity="0.55"/>
<rect x="255.65" y="410.86" width="2.5" height="17.14" fill="#93c5fd" opacity="0.55"/>
<rect x="259.48" y="410.86" width="2.5" height="17.14" fill="#93c5fd" opacity="0.55"/>
<rect x="263.3" y="410.86" width="2.5" height="17.14" fill="#93c5fd" opacity="0.55"/>
<rect x="267.13" y="410.86" width="2.5" height="17.14" fill="#93c5fd" opacity="0.55"/>
<rect x="270.96" y="410.86" width="2.5" height="17.14" fill="#93c5fd" opacity="0.55"/>
<rect x="274.78" y="410.86" width="2.5" height="17.14" fill="#93c5fd" opacity="0.55"/>
<rect x="278.61" y="410.86" width="2.5" height="17.14" fill="#93c5fd" opacity="0.55"/>
<rect x="282.43" y="410.86" width="2.5" height="17.14" fill="#93c5fd" opacity="0.55"/>
<rect x="286.26" y="410.86" width="2.5" height="17.14" fill="#93c5fd" opacity="0.55"/>
<rect x="290.09" y="410.86" width="2.5" height="17.14" fill="#93c5fd" opacity="0.55"/>
<rect x="293.91" y="410.86" width="2.5" height="17.14" fill="#93c5fd" opacity="0.55"/>
<rect x="297.74" y="410.86" width="2.5" height="17.14" fill="#93c5fd" opacity="0.55"/>
<rect x="301.57" y="410.86" width="2.5" height="17.14" fill="#93c5fd" opacity="0.55"/>
<rect x="305.39" y="410.86" width="2.5" height="17.14" fill="#93c5fd" opacity="0.55"/>
<rect x="309.22" y="410.86" width="2.5" height="17.14" fill="#93c5fd" opacity="0.55"/>
<rect x="313.04" y="410.86" width="2.5" height="17.14" fill="#93c5fd" opacity="0.55"/>
<rect x="316.87" y="410.86" width="2.5" height="17.14" fill="#93c5fd" opacity="0.55"/>
<rect x="320.7" y="410.86" width="2.5" height="17.14" fill="#93c5fd" opacity="0.55"/>
<rect x="324.52" y="410.86" width="2.5" height="17.14" fill="#93c5fd" opacity="0.55"/>
<rect x="328.35" y="410.86" width="2.5" height="17.14" fill="#93c5fd" opacity="0.55"/>
<rect x="332.17" y="410.86" width="2.5" height="17.14" fill="#93c5fd" opacity="0.55"/>
<rect x="336" y="410.86" width="2.5" height="17.14" fill="#93c5fd" opacity="0.55"/>
<rect x="339.83" y="410.86" width="2.5" height="17.14" fill="#93c5fd" opacity="0.55"/>
<rect x="343.65" y="410.86" width="2.5" height="17.14" fill="#93c5fd" opacity="0.55"/>
<rect x="347.48" y="410.86" width="2.5" height="17.14" fill="#93c5fd" opacity="0.55"/>
<rect x="351.3" y="410.86" width="2.5" height="17.14" fill="#93c5fd" opacity="0.55"/>
<rect x="355.13" y="410.86" width="2.5" height="17.14" fill="#93c5fd" opacity="0.55"/>
<rect x="358.96" y="410.86" width="2.5" height="17.14" fill="#93c5fd" opacity="0.55"/>
<rect x="362.78" y="410.86" width="2.5" height="17.14" fill="#93c5fd" opacity="0.55"/>
<rect x="366.61" y="410.86" width="2.5" height="17.14" fill="#93c5fd" opacity="0.55"/>
<rect x="370.43" y="410.86" width="2.5" height="17.14" fill="#93c5fd" opacity="0.55"/>
<rect x="374.26" y="410.86" width="2.5" height="17.14" fill="#93c5fd" opacity="0.55"/>
<rect x="378.09" y="410.86" width="2.5" height="17.14" fill="#93c5fd" opacity="0.55"/>
<rect x="381.91" y="410.86" width="2.5" height="17.14" fill="#93c5fd" opacity="0.55"/>
<rect x="385.74" y="410.86" width="2.5" height="17.14" fill="#93c5fd" opacity="0.55"/>
<rect x="389.57" y="410.86" width="2.5" height="17.14" fill="#93c5fd" opacity="0.55"/>
<rect x="393.39" y="410.86" width="2.5" height="17.14" fill="#93c5fd" opacity="0.55"/>
<rect x="397.22" y="410.86" width="2.5" height="17.14" fill="#93c5fd" opacity="0.55"/>
<rect x="401.04" y="410.86" width="2.5" height="17.14" fill="#93c5fd" opacity="0.55"/>
<rect x="404.87" y="410.86" width="2.5" height="17.14" fill="#93c5fd" opacity="0.55"/>
<rect x="408.7" y="410.86" width="2.5" height="17.14" fill="#93c5fd" opacity="0.55"/>
<rect x="412.52" y="410.86" width="2.5" height="17.14" fill="#93c5fd" opacity="0.55"/>
<rect x="416.35" y="410.86" width="2.5" height="17.14" fill="#93c5fd" opacity="0.55"/>
<rect x="420.17" y="410.86" width="2.5" height="17.14" fill="#93c5fd" opacity="0.55"/>
<rect x="424" y="410.86" width="2.5" height="17.14" fill="#93c5fd" opacity="0.55"/>
<rect x="427.83" y="410.86" width="2.5" height="17.14" fill="#93c5fd" opacity="0.55"/>
<rect x="431.65" y="410.86" width="2.5" height="17.14" fill="#93c5fd" opacity="0.55"/>
<rect x="435.48" y="410.86" width="2.5" height="17.14" fill="#93c5fd" opacity="0.55"/>
<rect x="439.3" y="402.29" width="2.5" height="25.71" fill="#93c5fd" opacity="0.55"/>
<rect x="443.13" y="402.29" width="2.5" height="25.71" fill="#93c5fd" opacity="0.55"/>
<rect x="446.96" y="410.86" width="2.5" height="17.14" fill="#93c5fd" opacity="0.55"/>
<rect x="450.78" y="410.86" width="2.5" height="17.14" fill="#93c5fd" opacity="0.55"/>
<rect x="454.61" y="410.86" width="2.5" height="17.14" fill="#93c5fd" opacity="0.55"/>
<rect x="458.43" y="410.86" width="2.5" height="17.14" fill="#93c5fd" opacity="0.55"/>
<rect x="462.26" y="393.71" width="2.5" height="34.29" fill="#93c5fd" opacity="0.55"/>
<rect x="462.26" y="368" width="2.5" height="25.71" fill="#1e3a8a" opacity="0.75"/>
<rect x="466.09" y="410.86" width="2.5" height="17.14" fill="#93c5fd" opacity="0.55"/>
<rect x="469.91" y="316.57" width="2.5" height="111.43" fill="#93c5fd" opacity="0.55"/>
<rect x="469.91" y="248" width="2.5" height="68.57" fill="#1e3a8a" opacity="0.75"/>
<rect x="473.74" y="402.29" width="2.5" height="25.71" fill="#93c5fd" opacity="0.55"/>
<rect x="473.74" y="393.71" width="2.5" height="8.57" fill="#1e3a8a" opacity="0.75"/>
<rect x="477.57" y="410.86" width="2.5" height="17.14" fill="#93c5fd" opacity="0.55"/>
<rect x="481.39" y="410.86" width="2.5" height="17.14" fill="#93c5fd" opacity="0.55"/>
<rect x="485.22" y="402.29" width="2.5" height="25.71" fill="#93c5fd" opacity="0.55"/>
<rect x="489.04" y="402.29" width="2.5" height="25.71" fill="#93c5fd" opacity="0.55"/>
<rect x="489.04" y="393.71" width="2.5" height="8.57" fill="#1e3a8a" opacity="0.75"/>
<rect x="492.87" y="410.86" width="2.5" height="17.14" fill="#93c5fd" opacity="0.55"/>
<rect x="496.7" y="402.29" width="2.5" height="25.71" fill="#93c5fd" opacity="0.55"/>
<rect x="500.52" y="368" width="2.5" height="60" fill="#93c5fd" opacity="0.55"/>
<rect x="504.35" y="308" width="2.5" height="120" fill="#93c5fd" opacity="0.55"/>
<rect x="508.17" y="385.14" width="2.5" height="42.86" fill="#93c5fd" opacity="0.55"/>
<rect x="512" y="393.71" width="2.5" height="34.29" fill="#93c5fd" opacity="0.55"/>
<rect x="515.83" y="402.29" width="2.5" height="25.71" fill="#93c5fd" opacity="0.55"/>
<rect x="519.65" y="368" width="2.5" height="60" fill="#93c5fd" opacity="0.55"/>
<rect x="523.48" y="350.86" width="2.5" height="77.14" fill="#93c5fd" opacity="0.55"/>
<rect x="523.48" y="282.29" width="2.5" height="68.57" fill="#1e3a8a" opacity="0.75"/>
<rect x="527.3" y="393.71" width="2.5" height="34.29" fill="#93c5fd" opacity="0.55"/>
<rect x="531.13" y="393.71" width="2.5" height="34.29" fill="#93c5fd" opacity="0.55"/>
<rect x="534.96" y="393.71" width="2.5" height="34.29" fill="#93c5fd" opacity="0.55"/>
<rect x="538.78" y="402.29" width="2.5" height="25.71" fill="#93c5fd" opacity="0.55"/>
<rect x="538.78" y="393.71" width="2.5" height="8.57" fill="#1e3a8a" opacity="0.75"/>
<rect x="542.61" y="402.29" width="2.5" height="25.71" fill="#93c5fd" opacity="0.55"/>
<rect x="542.61" y="393.71" width="2.5" height="8.57" fill="#1e3a8a" opacity="0.75"/>
<rect x="546.43" y="410.86" width="2.5" height="17.14" fill="#93c5fd" opacity="0.55"/>
<rect x="550.26" y="410.86" width="2.5" height="17.14" fill="#93c5fd" opacity="0.55"/>
<rect x="554.09" y="402.29" width="2.5" height="25.71" fill="#93c5fd" opacity="0.55"/>
<rect x="557.91" y="410.86" width="2.5" height="17.14" fill="#93c5fd" opacity="0.55"/>
<rect x="561.74" y="402.29" width="2.5" height="25.71" fill="#93c5fd" opacity="0.55"/>
<rect x="565.57" y="410.86" width="2.5" height="17.14" fill="#93c5fd" opacity="0.55"/>
<rect x="569.39" y="402.29" width="2.5" height="25.71" fill="#93c5fd" opacity="0.55"/>
<rect x="573.22" y="410.86" width="2.5" height="17.14" fill="#93c5fd" opacity="0.55"/>
<rect x="577.04" y="402.29" width="2.5" height="25.71" fill="#93c5fd" opacity="0.55"/>
<rect x="580.87" y="410.86" width="2.5" height="17.14" fill="#93c5fd" opacity="0.55"/>
<rect x="584.7" y="368" width="2.5" height="60" fill="#93c5fd" opacity="0.55"/>
<rect x="588.52" y="402.29" width="2.5" height="25.71" fill="#93c5fd" opacity="0.55"/>
<rect x="592.35" y="385.14" width="2.5" height="42.86" fill="#93c5fd" opacity="0.55"/>
<rect x="596.17" y="393.71" width="2.5" height="34.29" fill="#93c5fd" opacity="0.55"/>
<rect x="596.17" y="385.14" width="2.5" height="8.57" fill="#1e3a8a" opacity="0.75"/>
<rect x="600" y="342.29" width="2.5" height="85.71" fill="#93c5fd" opacity="0.55"/>
<rect x="603.83" y="410.86" width="2.5" height="17.14" fill="#93c5fd" opacity="0.55"/>
<rect x="603.83" y="368" width="2.5" height="42.86" fill="#1e3a8a" opacity="0.75"/>
<rect x="607.65" y="350.86" width="2.5" height="77.14" fill="#93c5fd" opacity="0.55"/>
<rect x="611.48" y="410.86" width="2.5" height="17.14" fill="#93c5fd" opacity="0.55"/>
<rect x="615.3" y="410.86" width="2.5" height="17.14" fill="#93c5fd" opacity="0.55"/>
<rect x="619.13" y="410.86" width="2.5" height="17.14" fill="#93c5fd" opacity="0.55"/>
<rect x="622.96" y="393.71" width="2.5" height="34.29" fill="#93c5fd" opacity="0.55"/>
<rect x="626.78" y="402.29" width="2.5" height="25.71" fill="#93c5fd" opacity="0.55"/>
<rect x="630.61" y="402.29" width="2.5" height="25.71" fill="#93c5fd" opacity="0.55"/>
<rect x="634.43" y="410.86" width="2.5" height="17.14" fill="#93c5fd" opacity="0.55"/>
<rect x="638.26" y="290.86" width="2.5" height="137.14" fill="#93c5fd" opacity="0.55"/>
<rect x="638.26" y="265.14" width="2.5" height="25.71" fill="#1e3a8a" opacity="0.75"/>
<rect x="642.09" y="410.86" width="2.5" height="17.14" fill="#93c5fd" opacity="0.55"/>
<rect x="645.91" y="402.29" width="2.5" height="25.71" fill="#93c5fd" opacity="0.55"/>
<rect x="649.74" y="410.86" width="2.5" height="17.14" fill="#93c5fd" opacity="0.55"/>
<rect x="653.57" y="410.86" width="2.5" height="17.14" fill="#93c5fd" opacity="0.55"/>
<rect x="657.39" y="410.86" width="2.5" height="17.14" fill="#93c5fd" opacity="0.55"/>
<rect x="661.22" y="410.86" width="2.5" height="17.14" fill="#93c5fd" opacity="0.55"/>
<rect x="665.04" y="410.86" width="2.5" height="17.14" fill="#93c5fd" opacity="0.55"/>
<rect x="668.87" y="410.86" width="2.5" height="17.14" fill="#93c5fd" opacity="0.55"/>
<rect x="672.7" y="410.86" width="2.5" height="17.14" fill="#93c5fd" opacity="0.55"/>
<rect x="676.52" y="402.29" width="2.5" height="25.71" fill="#93c5fd" opacity="0.55"/>
<rect x="680.35" y="410.86" width="2.5" height="17.14" fill="#93c5fd" opacity="0.55"/>
<rect x="684.17" y="410.86" width="2.5" height="17.14" fill="#93c5fd" opacity="0.55"/>
<rect x="688" y="402.29" width="2.5" height="25.71" fill="#93c5fd" opacity="0.55"/>
<rect x="691.83" y="410.86" width="2.5" height="17.14" fill="#93c5fd" opacity="0.55"/>
<rect x="695.65" y="410.86" width="2.5" height="17.14" fill="#93c5fd" opacity="0.55"/>
<rect x="699.48" y="410.86" width="2.5" height="17.14" fill="#93c5fd" opacity="0.55"/>
<rect x="703.3" y="410.86" width="2.5" height="17.14" fill="#93c5fd" opacity="0.55"/>
<rect x="707.13" y="410.86" width="2.5" height="17.14" fill="#93c5fd" opacity="0.55"/>
<rect x="710.96" y="402.29" width="2.5" height="25.71" fill="#93c5fd" opacity="0.55"/>
<rect x="714.78" y="410.86" width="2.5" height="17.14" fill="#93c5fd" opacity="0.55"/>
<rect x="718.61" y="410.86" width="2.5" height="17.14" fill="#93c5fd" opacity="0.55"/>
<rect x="722.43" y="410.86" width="2.5" height="17.14" fill="#93c5fd" opacity="0.55"/>
<rect x="726.26" y="410.86" width="2.5" height="17.14" fill="#93c5fd" opacity="0.55"/>
<rect x="730.09" y="410.86" width="2.5" height="17.14" fill="#93c5fd" opacity="0.55"/>
<rect x="733.91" y="393.71" width="2.5" height="34.29" fill="#93c5fd" opacity="0.55"/>
<rect x="737.74" y="205.14" width="2.5" height="222.86" fill="#93c5fd" opacity="0.55"/>
<rect x="737.74" y="170.86" width="2.5" height="34.29" fill="#1e3a8a" opacity="0.75"/>
<rect x="741.57" y="393.71" width="2.5" height="34.29" fill="#93c5fd" opacity="0.55"/>
<rect x="741.57" y="368" width="2.5" height="25.71" fill="#1e3a8a" opacity="0.75"/>
<rect x="745.39" y="410.86" width="2.5" height="17.14" fill="#93c5fd" opacity="0.55"/>
<rect x="749.22" y="385.14" width="2.5" height="42.86" fill="#93c5fd" opacity="0.55"/>
<rect x="753.04" y="282.29" width="2.5" height="145.71" fill="#93c5fd" opacity="0.55"/>
<rect x="753.04" y="273.71" width="2.5" height="8.57" fill="#1e3a8a" opacity="0.75"/>
<rect x="756.87" y="410.86" width="2.5" height="17.14" fill="#93c5fd" opacity="0.55"/>
<rect x="760.7" y="393.71" width="2.5" height="34.29" fill="#93c5fd" opacity="0.55"/>
<rect x="764.52" y="402.29" width="2.5" height="25.71" fill="#93c5fd" opacity="0.55"/>
<rect x="768.35" y="410.86" width="2.5" height="17.14" fill="#93c5fd" opacity="0.55"/>
<rect x="772.17" y="410.86" width="2.5" height="17.14" fill="#93c5fd" opacity="0.55"/>
<rect x="776" y="410.86" width="2.5" height="17.14" fill="#93c5fd" opacity="0.55"/>
<rect x="779.83" y="402.29" width="2.5" height="25.71" fill="#93c5fd" opacity="0.55"/>
<rect x="783.65" y="410.86" width="2.5" height="17.14" fill="#93c5fd" opacity="0.55"/>
<rect x="787.48" y="410.86" width="2.5" height="17.14" fill="#93c5fd" opacity="0.55"/>
<rect x="791.3" y="410.86" width="2.5" height="17.14" fill="#93c5fd" opacity="0.55"/>
<rect x="795.13" y="410.86" width="2.5" height="17.14" fill="#93c5fd" opacity="0.55"/>
<rect x="798.96" y="368" width="2.5" height="60" fill="#93c5fd" opacity="0.55"/>
<rect x="802.78" y="410.86" width="2.5" height="17.14" fill="#93c5fd" opacity="0.55"/>
<rect x="806.61" y="410.86" width="2.5" height="17.14" fill="#93c5fd" opacity="0.55"/>
<rect x="810.43" y="410.86" width="2.5" height="17.14" fill="#93c5fd" opacity="0.55"/>
<rect x="682" y="64" width="10" height="10" fill="#93c5fd" opacity="0.75"/>
<text x="697" y="69" dominant-baseline="middle" font-family="Arial, sans-serif" font-size="11" fill="#555">baseline HTTP success</text>
<rect x="832" y="64" width="10" height="10" fill="#1e3a8a" opacity="0.75"/>
<text x="847" y="69" dominant-baseline="middle" font-family="Arial, sans-serif" font-size="11" fill="#555">baseline HTTP failure</text>
<rect x="682" y="82" width="10" height="10" fill="#fca5a5" opacity="0.75"/>
<text x="697" y="87" dominant-baseline="middle" font-family="Arial, sans-serif" font-size="11" fill="#555">CCRS HTTP success</text>
<rect x="832" y="82" width="10" height="10" fill="#991b1b" opacity="0.75"/>
<text x="847" y="87" dominant-baseline="middle" font-family="Arial, sans-serif" font-size="11" fill="#555">CCRS HTTP failure</text>
<text x="512" y="496" text-anchor="middle" font-family="Arial, sans-serif" font-size="13">Movement step number</text>
<text x="18" y="278" text-anchor="middle" transform="rotate(-90 18 278)" font-family="Arial, sans-serif" font-size="13">HTTP calls</text>
</svg>
